<svg width="1500" height="781" viewBox="0 0 1500 781" fill="none" xmlns="http://www.w3.org/2000/svg">
<rect width="1500" height="781" rx="8" fill="#212529"/>
<circle cx="947.5" cy="390.5" r="296.5" fill="#E064CC" fill-opacity="0.05"/>
<circle cx="947.5" cy="390.5" r="258.476" fill="#E064CC" fill-opacity="0.05"/>
<circle cx="944.784" cy="390.5" r="212.303" fill="#E064CC" fill-opacity="0.05"/>
<rect x="825.731" y="198.115" width="256.212" height="354.895" rx="3.62137" fill="white"/>
<rect x="851" y="288" width="206" height="36" rx="1.81069" fill="#F3F3F3"/>
<rect x="851" y="339" width="206" height="36" rx="1.81069" fill="#F3F3F3"/>
<rect x="851" y="237" width="206" height="36" rx="1.81069" fill="#F3F3F3"/>
<rect x="851" y="441" width="206" height="36" rx="1.81069" fill="#F3F3F3"/>
<rect x="851" y="492" width="206" height="36" rx="1.81069" fill="#F3F3F3"/>
<rect x="851" y="390" width="206" height="36" rx="1.81069" fill="#F3F3F3"/>
<rect x="848" y="334.35" width="52.5099" height="15.3908" rx="1.81069" fill="#FCEFFA"/>
<g filter="url(#filter0_d_110_353)">
<rect x="871" y="401" width="231.786" height="69" rx="2.67961" fill="white"/>
</g>
<rect x="881.049" y="414.398" width="44.8835" height="42.8738" rx="2.67961" fill="#66C085"/>
<rect x="934.641" y="414.398" width="152.738" height="11.3883" rx="1.33981" fill="#66C085" fill-opacity="0.11"/>
<rect x="934.641" y="433.155" width="38.8544" height="11.3883" rx="1.33981" fill="#66C085" fill-opacity="0.11"/>
<g clip-path="url(#clip0_110_353)">
<path d="M909.184 430.476H897.126C896.386 430.476 895.786 431.076 895.786 431.816V439.854C895.786 440.594 896.386 441.194 897.126 441.194H909.184C909.924 441.194 910.524 440.594 910.524 439.854V431.816C910.524 431.076 909.924 430.476 909.184 430.476Z" stroke="white" stroke-width="1.33981" stroke-linecap="round" stroke-linejoin="round"/>
<path d="M895.786 434.495H910.524" stroke="white" stroke-width="1.33981" stroke-linecap="round" stroke-linejoin="round"/>
</g>
<g filter="url(#filter1_d_110_353)">
<rect x="732.481" y="332.105" width="313.249" height="93.2504" rx="3.62137" fill="white"/>
</g>
<rect x="746.061" y="350.212" width="60.658" height="57.942" rx="3.62137" fill="#FD377E"/>
<rect x="818.489" y="350.212" width="206.418" height="15.3908" rx="1.81069" fill="#FCEFFA"/>
<rect x="818.489" y="375.562" width="52.5099" height="15.3908" rx="1.81069" fill="#FCEFFA"/>
<g clip-path="url(#clip1_110_353)">
<path d="M784.086 371.94H767.789C766.789 371.94 765.979 372.751 765.979 373.751V384.615C765.979 385.615 766.789 386.426 767.789 386.426H784.086C785.086 386.426 785.896 385.615 785.896 384.615V373.751C785.896 372.751 785.086 371.94 784.086 371.94Z" stroke="white" stroke-width="1.81069" stroke-linecap="round" stroke-linejoin="round"/>
<path d="M765.979 377.373H785.896" stroke="white" stroke-width="1.81069" stroke-linecap="round" stroke-linejoin="round"/>
</g>
<circle cx="1036" cy="213" r="3" fill="#FD377E"/>
<circle cx="1051" cy="213" r="3" fill="#66C085"/>
<circle cx="1066" cy="213" r="3" fill="black"/>
<path d="M271.694 301.418C268.806 301.418 266.336 300.848 264.284 299.708C262.232 298.568 260.649 296.972 259.534 294.92C258.445 292.843 257.9 290.398 257.9 287.586C257.9 285.483 258.204 283.596 258.812 281.924C259.445 280.227 260.357 278.783 261.548 277.592C262.739 276.376 264.183 275.439 265.88 274.78C267.603 274.121 269.541 273.792 271.694 273.792C272.961 273.792 274.24 273.957 275.532 274.286C276.849 274.59 277.989 275.033 278.952 275.616C279.585 275.971 280.016 276.414 280.244 276.946C280.472 277.478 280.535 278.01 280.434 278.542C280.358 279.074 280.143 279.53 279.788 279.91C279.459 280.29 279.041 280.531 278.534 280.632C278.027 280.733 277.457 280.619 276.824 280.29C276.064 279.834 275.266 279.505 274.43 279.302C273.594 279.099 272.745 278.998 271.884 278.998C270.187 278.998 268.755 279.34 267.59 280.024C266.45 280.683 265.589 281.645 265.006 282.912C264.423 284.179 264.132 285.737 264.132 287.586C264.132 289.41 264.423 290.968 265.006 292.26C265.589 293.552 266.45 294.54 267.59 295.224C268.755 295.883 270.187 296.212 271.884 296.212C272.695 296.212 273.518 296.111 274.354 295.908C275.215 295.705 276.039 295.389 276.824 294.958C277.483 294.629 278.065 294.515 278.572 294.616C279.104 294.692 279.535 294.92 279.864 295.3C280.219 295.655 280.434 296.085 280.51 296.592C280.611 297.099 280.561 297.605 280.358 298.112C280.155 298.619 279.775 299.049 279.218 299.404C278.281 300.037 277.128 300.531 275.76 300.886C274.392 301.241 273.037 301.418 271.694 301.418ZM292.535 301.418C290.331 301.418 288.431 301.025 286.835 300.24C285.264 299.429 284.048 298.302 283.187 296.858C282.351 295.389 281.933 293.666 281.933 291.69C281.933 289.765 282.338 288.08 283.149 286.636C283.959 285.167 285.087 284.027 286.531 283.216C288 282.38 289.659 281.962 291.509 281.962C292.851 281.962 294.067 282.19 295.157 282.646C296.246 283.077 297.183 283.71 297.969 284.546C298.754 285.357 299.349 286.357 299.755 287.548C300.16 288.713 300.363 290.018 300.363 291.462C300.363 291.943 300.211 292.311 299.907 292.564C299.603 292.792 299.159 292.906 298.577 292.906H286.645V289.942H296.221L295.613 290.474C295.613 289.435 295.461 288.574 295.157 287.89C294.853 287.181 294.409 286.649 293.827 286.294C293.269 285.939 292.573 285.762 291.737 285.762C290.799 285.762 290.001 285.977 289.343 286.408C288.684 286.839 288.177 287.459 287.823 288.27C287.468 289.081 287.291 290.056 287.291 291.196V291.5C287.291 293.425 287.734 294.844 288.621 295.756C289.533 296.668 290.875 297.124 292.649 297.124C293.257 297.124 293.953 297.048 294.739 296.896C295.524 296.744 296.259 296.503 296.943 296.174C297.525 295.895 298.045 295.807 298.501 295.908C298.957 295.984 299.311 296.187 299.565 296.516C299.818 296.845 299.957 297.225 299.983 297.656C300.033 298.087 299.945 298.517 299.717 298.948C299.489 299.353 299.109 299.695 298.577 299.974C297.715 300.455 296.74 300.81 295.651 301.038C294.587 301.291 293.548 301.418 292.535 301.418ZM306.588 301.342C305.651 301.342 304.929 301.089 304.422 300.582C303.941 300.075 303.7 299.353 303.7 298.416V284.926C303.7 283.989 303.941 283.279 304.422 282.798C304.929 282.291 305.625 282.038 306.512 282.038C307.424 282.038 308.121 282.291 308.602 282.798C309.083 283.279 309.324 283.989 309.324 284.926V287.092L308.906 285.838C309.489 284.597 310.35 283.647 311.49 282.988C312.655 282.304 313.973 281.962 315.442 281.962C316.937 281.962 318.165 282.253 319.128 282.836C320.091 283.393 320.813 284.255 321.294 285.42C321.775 286.56 322.016 288.017 322.016 289.79V298.416C322.016 299.353 321.763 300.075 321.256 300.582C320.775 301.089 320.065 301.342 319.128 301.342C318.216 301.342 317.507 301.089 317 300.582C316.519 300.075 316.278 299.353 316.278 298.416V290.056C316.278 288.764 316.037 287.839 315.556 287.282C315.1 286.699 314.391 286.408 313.428 286.408C312.212 286.408 311.237 286.788 310.502 287.548C309.793 288.308 309.438 289.321 309.438 290.588V298.416C309.438 300.367 308.488 301.342 306.588 301.342ZM335.458 301.418C333.71 301.418 332.24 301.127 331.05 300.544C329.884 299.961 329.01 299.113 328.428 297.998C327.87 296.883 327.592 295.477 327.592 293.78V286.636H325.996C325.286 286.636 324.729 286.446 324.324 286.066C323.944 285.686 323.754 285.167 323.754 284.508C323.754 283.799 323.944 283.267 324.324 282.912C324.729 282.532 325.286 282.342 325.996 282.342H327.592V279.454C327.592 278.491 327.845 277.769 328.352 277.288C328.858 276.781 329.568 276.528 330.48 276.528C331.417 276.528 332.126 276.781 332.608 277.288C333.089 277.769 333.33 278.491 333.33 279.454V282.342H336.94C337.649 282.342 338.194 282.532 338.574 282.912C338.954 283.267 339.144 283.799 339.144 284.508C339.144 285.167 338.954 285.686 338.574 286.066C338.194 286.446 337.649 286.636 336.94 286.636H333.33V293.552C333.33 294.616 333.57 295.414 334.052 295.946C334.558 296.478 335.356 296.744 336.446 296.744C336.826 296.744 337.18 296.706 337.51 296.63C337.839 296.554 338.143 296.503 338.422 296.478C338.776 296.453 339.068 296.567 339.296 296.82C339.524 297.048 339.638 297.567 339.638 298.378C339.638 298.986 339.536 299.518 339.334 299.974C339.131 300.43 338.776 300.759 338.27 300.962C337.94 301.089 337.484 301.19 336.902 301.266C336.344 301.367 335.863 301.418 335.458 301.418ZM344.627 301.342C343.664 301.342 342.93 301.089 342.423 300.582C341.916 300.075 341.663 299.353 341.663 298.416V284.926C341.663 283.989 341.904 283.279 342.385 282.798C342.892 282.291 343.588 282.038 344.475 282.038C345.387 282.038 346.084 282.291 346.565 282.798C347.046 283.279 347.287 283.989 347.287 284.926V286.902H346.907C347.211 285.382 347.882 284.204 348.921 283.368C349.96 282.532 351.302 282.063 352.949 281.962C353.582 281.911 354.064 282.076 354.393 282.456C354.748 282.811 354.938 283.406 354.963 284.242C355.014 285.027 354.849 285.648 354.469 286.104C354.114 286.56 353.506 286.839 352.645 286.94L351.771 287.016C350.327 287.143 349.25 287.561 348.541 288.27C347.857 288.979 347.515 290.005 347.515 291.348V298.416C347.515 299.353 347.262 300.075 346.755 300.582C346.274 301.089 345.564 301.342 344.627 301.342ZM363.446 301.418C362.078 301.418 360.849 301.152 359.76 300.62C358.67 300.088 357.822 299.366 357.214 298.454C356.606 297.542 356.302 296.516 356.302 295.376C356.302 294.008 356.656 292.931 357.366 292.146C358.075 291.335 359.228 290.765 360.824 290.436C362.42 290.081 364.535 289.904 367.17 289.904H369.184V292.868H367.208C365.916 292.868 364.864 292.944 364.054 293.096C363.268 293.223 362.698 293.451 362.344 293.78C362.014 294.109 361.85 294.565 361.85 295.148C361.85 295.857 362.09 296.44 362.572 296.896C363.078 297.352 363.8 297.58 364.738 297.58C365.472 297.58 366.118 297.415 366.676 297.086C367.258 296.731 367.714 296.263 368.044 295.68C368.373 295.072 368.538 294.388 368.538 293.628V289.258C368.538 288.143 368.284 287.358 367.778 286.902C367.271 286.421 366.41 286.18 365.194 286.18C364.51 286.18 363.762 286.269 362.952 286.446C362.166 286.598 361.292 286.864 360.33 287.244C359.772 287.497 359.278 287.561 358.848 287.434C358.417 287.282 358.088 287.029 357.86 286.674C357.632 286.294 357.518 285.889 357.518 285.458C357.518 285.002 357.644 284.571 357.898 284.166C358.151 283.735 358.569 283.419 359.152 283.216C360.342 282.735 361.457 282.405 362.496 282.228C363.56 282.051 364.535 281.962 365.422 281.962C367.372 281.962 368.968 282.253 370.21 282.836C371.476 283.393 372.426 284.267 373.06 285.458C373.693 286.623 374.01 288.131 374.01 289.98V298.416C374.01 299.353 373.782 300.075 373.326 300.582C372.87 301.089 372.211 301.342 371.35 301.342C370.488 301.342 369.817 301.089 369.336 300.582C368.88 300.075 368.652 299.353 368.652 298.416V297.01L368.918 297.238C368.766 298.099 368.436 298.847 367.93 299.48C367.448 300.088 366.828 300.569 366.068 300.924C365.308 301.253 364.434 301.418 363.446 301.418ZM385.016 301.418C382.761 301.418 381.077 300.797 379.962 299.556C378.847 298.289 378.29 296.415 378.29 293.932V276.794C378.29 275.831 378.531 275.109 379.012 274.628C379.519 274.121 380.241 273.868 381.178 273.868C382.09 273.868 382.787 274.121 383.268 274.628C383.775 275.109 384.028 275.831 384.028 276.794V293.704C384.028 294.743 384.243 295.515 384.674 296.022C385.13 296.503 385.725 296.744 386.46 296.744C386.663 296.744 386.853 296.731 387.03 296.706C387.207 296.681 387.397 296.668 387.6 296.668C388.005 296.617 388.284 296.744 388.436 297.048C388.613 297.327 388.702 297.897 388.702 298.758C388.702 299.518 388.55 300.101 388.246 300.506C387.942 300.886 387.473 301.139 386.84 301.266C386.587 301.291 386.295 301.317 385.966 301.342C385.637 301.393 385.32 301.418 385.016 301.418ZM393.832 301.304C392.895 301.304 392.173 301.038 391.666 300.506C391.185 299.949 390.944 299.176 390.944 298.188V285.192C390.944 284.179 391.185 283.406 391.666 282.874C392.173 282.317 392.895 282.038 393.832 282.038C394.744 282.038 395.441 282.317 395.922 282.874C396.429 283.406 396.682 284.179 396.682 285.192V298.188C396.682 299.176 396.442 299.949 395.96 300.506C395.479 301.038 394.77 301.304 393.832 301.304ZM393.832 278.922C392.768 278.922 391.945 278.681 391.362 278.2C390.805 277.693 390.526 276.984 390.526 276.072C390.526 275.135 390.805 274.425 391.362 273.944C391.945 273.437 392.768 273.184 393.832 273.184C394.896 273.184 395.707 273.437 396.264 273.944C396.822 274.425 397.1 275.135 397.1 276.072C397.1 276.984 396.822 277.693 396.264 278.2C395.707 278.681 394.896 278.922 393.832 278.922ZM402.708 301C402.151 301 401.682 300.861 401.302 300.582C400.922 300.278 400.669 299.898 400.542 299.442C400.416 298.986 400.416 298.492 400.542 297.96C400.694 297.428 400.986 296.934 401.416 296.478L410.726 285.306V286.636H402.48C401.796 286.636 401.264 286.446 400.884 286.066C400.504 285.686 400.314 285.167 400.314 284.508C400.314 283.799 400.504 283.267 400.884 282.912C401.264 282.532 401.796 282.342 402.48 282.342H413.462C414.146 282.342 414.691 282.494 415.096 282.798C415.502 283.102 415.768 283.482 415.894 283.938C416.046 284.369 416.059 284.85 415.932 285.382C415.831 285.889 415.565 286.37 415.134 286.826L405.596 298.226V296.744H414.412C415.856 296.744 416.578 297.453 416.578 298.872C416.578 299.556 416.388 300.088 416.008 300.468C415.628 300.823 415.096 301 414.412 301H402.708ZM428.689 301.418C426.485 301.418 424.585 301.025 422.989 300.24C421.418 299.429 420.202 298.302 419.341 296.858C418.505 295.389 418.087 293.666 418.087 291.69C418.087 289.765 418.492 288.08 419.303 286.636C420.114 285.167 421.241 284.027 422.685 283.216C424.154 282.38 425.814 281.962 427.663 281.962C429.006 281.962 430.222 282.19 431.311 282.646C432.4 283.077 433.338 283.71 434.123 284.546C434.908 285.357 435.504 286.357 435.909 287.548C436.314 288.713 436.517 290.018 436.517 291.462C436.517 291.943 436.365 292.311 436.061 292.564C435.757 292.792 435.314 292.906 434.731 292.906H422.799V289.942H432.375L431.767 290.474C431.767 289.435 431.615 288.574 431.311 287.89C431.007 287.181 430.564 286.649 429.981 286.294C429.424 285.939 428.727 285.762 427.891 285.762C426.954 285.762 426.156 285.977 425.497 286.408C424.838 286.839 424.332 287.459 423.977 288.27C423.622 289.081 423.445 290.056 423.445 291.196V291.5C423.445 293.425 423.888 294.844 424.775 295.756C425.687 296.668 427.03 297.124 428.803 297.124C429.411 297.124 430.108 297.048 430.893 296.896C431.678 296.744 432.413 296.503 433.097 296.174C433.68 295.895 434.199 295.807 434.655 295.908C435.111 295.984 435.466 296.187 435.719 296.516C435.972 296.845 436.112 297.225 436.137 297.656C436.188 298.087 436.099 298.517 435.871 298.948C435.643 299.353 435.263 299.695 434.731 299.974C433.87 300.455 432.894 300.81 431.805 301.038C430.741 301.291 429.702 301.418 428.689 301.418ZM459.436 301.418C457.434 301.418 455.686 301.025 454.192 300.24C452.722 299.455 451.582 298.327 450.772 296.858C449.961 295.389 449.556 293.653 449.556 291.652C449.556 290.157 449.784 288.815 450.24 287.624C450.696 286.433 451.354 285.42 452.216 284.584C453.102 283.723 454.154 283.077 455.37 282.646C456.586 282.19 457.941 281.962 459.436 281.962C461.437 281.962 463.172 282.355 464.642 283.14C466.136 283.925 467.289 285.04 468.1 286.484C468.936 287.928 469.354 289.651 469.354 291.652C469.354 293.172 469.113 294.527 468.632 295.718C468.176 296.909 467.517 297.935 466.656 298.796C465.794 299.657 464.743 300.316 463.502 300.772C462.286 301.203 460.93 301.418 459.436 301.418ZM459.436 297.124C460.272 297.124 460.994 296.921 461.602 296.516C462.21 296.111 462.691 295.515 463.046 294.73C463.4 293.919 463.578 292.893 463.578 291.652C463.578 289.803 463.198 288.447 462.438 287.586C461.678 286.699 460.677 286.256 459.436 286.256C458.625 286.256 457.903 286.446 457.27 286.826C456.662 287.206 456.18 287.801 455.826 288.612C455.496 289.397 455.332 290.411 455.332 291.652C455.332 293.501 455.712 294.882 456.472 295.794C457.232 296.681 458.22 297.124 459.436 297.124ZM267.286 349.418C265.259 349.418 263.486 349.025 261.966 348.24C260.471 347.429 259.319 346.289 258.508 344.82C257.697 343.351 257.292 341.615 257.292 339.614C257.292 338.119 257.52 336.777 257.976 335.586C258.432 334.395 259.091 333.382 259.952 332.546C260.839 331.71 261.903 331.077 263.144 330.646C264.385 330.19 265.766 329.962 267.286 329.962C268.071 329.962 268.907 330.063 269.794 330.266C270.681 330.443 271.555 330.76 272.416 331.216C272.923 331.444 273.265 331.773 273.442 332.204C273.645 332.609 273.721 333.04 273.67 333.496C273.619 333.927 273.455 334.319 273.176 334.674C272.923 335.003 272.593 335.231 272.188 335.358C271.783 335.459 271.327 335.383 270.82 335.13C270.339 334.851 269.832 334.649 269.3 334.522C268.793 334.395 268.312 334.332 267.856 334.332C267.096 334.332 266.425 334.459 265.842 334.712C265.259 334.94 264.765 335.282 264.36 335.738C263.98 336.169 263.676 336.713 263.448 337.372C263.245 338.031 263.144 338.791 263.144 339.652C263.144 341.324 263.549 342.641 264.36 343.604C265.196 344.541 266.361 345.01 267.856 345.01C268.312 345.01 268.793 344.959 269.3 344.858C269.807 344.731 270.313 344.529 270.82 344.25C271.327 343.997 271.783 343.933 272.188 344.06C272.593 344.187 272.91 344.427 273.138 344.782C273.391 345.111 273.531 345.504 273.556 345.96C273.607 346.391 273.531 346.821 273.328 347.252C273.151 347.657 272.821 347.974 272.34 348.202C271.479 348.633 270.617 348.937 269.756 349.114C268.895 349.317 268.071 349.418 267.286 349.418ZM284.947 349.418C282.946 349.418 281.198 349.025 279.703 348.24C278.234 347.455 277.094 346.327 276.283 344.858C275.473 343.389 275.067 341.653 275.067 339.652C275.067 338.157 275.295 336.815 275.751 335.624C276.207 334.433 276.866 333.42 277.727 332.584C278.614 331.723 279.665 331.077 280.881 330.646C282.097 330.19 283.453 329.962 284.947 329.962C286.949 329.962 288.684 330.355 290.153 331.14C291.648 331.925 292.801 333.04 293.611 334.484C294.447 335.928 294.865 337.651 294.865 339.652C294.865 341.172 294.625 342.527 294.143 343.718C293.687 344.909 293.029 345.935 292.167 346.796C291.306 347.657 290.255 348.316 289.013 348.772C287.797 349.203 286.442 349.418 284.947 349.418ZM284.947 345.124C285.783 345.124 286.505 344.921 287.113 344.516C287.721 344.111 288.203 343.515 288.557 342.73C288.912 341.919 289.089 340.893 289.089 339.652C289.089 337.803 288.709 336.447 287.949 335.586C287.189 334.699 286.189 334.256 284.947 334.256C284.137 334.256 283.415 334.446 282.781 334.826C282.173 335.206 281.692 335.801 281.337 336.612C281.008 337.397 280.843 338.411 280.843 339.652C280.843 341.501 281.223 342.882 281.983 343.794C282.743 344.681 283.731 345.124 284.947 345.124ZM301.244 349.342C300.307 349.342 299.585 349.089 299.078 348.582C298.597 348.075 298.356 347.353 298.356 346.416V332.926C298.356 331.989 298.597 331.279 299.078 330.798C299.585 330.291 300.282 330.038 301.168 330.038C302.08 330.038 302.777 330.291 303.258 330.798C303.74 331.279 303.98 331.989 303.98 332.926V335.092L303.562 333.838C304.145 332.597 305.006 331.647 306.146 330.988C307.312 330.304 308.629 329.962 310.098 329.962C311.593 329.962 312.822 330.253 313.784 330.836C314.747 331.393 315.469 332.255 315.95 333.42C316.432 334.56 316.672 336.017 316.672 337.79V346.416C316.672 347.353 316.419 348.075 315.912 348.582C315.431 349.089 314.722 349.342 313.784 349.342C312.872 349.342 312.163 349.089 311.656 348.582C311.175 348.075 310.934 347.353 310.934 346.416V338.056C310.934 336.764 310.694 335.839 310.212 335.282C309.756 334.699 309.047 334.408 308.084 334.408C306.868 334.408 305.893 334.788 305.158 335.548C304.449 336.308 304.094 337.321 304.094 338.588V346.416C304.094 348.367 303.144 349.342 301.244 349.342ZM330.114 349.418C328.366 349.418 326.897 349.127 325.706 348.544C324.541 347.961 323.667 347.113 323.084 345.998C322.527 344.883 322.248 343.477 322.248 341.78V334.636H320.652C319.943 334.636 319.385 334.446 318.98 334.066C318.6 333.686 318.41 333.167 318.41 332.508C318.41 331.799 318.6 331.267 318.98 330.912C319.385 330.532 319.943 330.342 320.652 330.342H322.248V327.454C322.248 326.491 322.501 325.769 323.008 325.288C323.515 324.781 324.224 324.528 325.136 324.528C326.073 324.528 326.783 324.781 327.264 325.288C327.745 325.769 327.986 326.491 327.986 327.454V330.342H331.596C332.305 330.342 332.85 330.532 333.23 330.912C333.61 331.267 333.8 331.799 333.8 332.508C333.8 333.167 333.61 333.686 333.23 334.066C332.85 334.446 332.305 334.636 331.596 334.636H327.986V341.552C327.986 342.616 328.227 343.414 328.708 343.946C329.215 344.478 330.013 344.744 331.102 344.744C331.482 344.744 331.837 344.706 332.166 344.63C332.495 344.554 332.799 344.503 333.078 344.478C333.433 344.453 333.724 344.567 333.952 344.82C334.18 345.048 334.294 345.567 334.294 346.378C334.294 346.986 334.193 347.518 333.99 347.974C333.787 348.43 333.433 348.759 332.926 348.962C332.597 349.089 332.141 349.19 331.558 349.266C331.001 349.367 330.519 349.418 330.114 349.418ZM339.283 349.342C338.321 349.342 337.586 349.089 337.079 348.582C336.573 348.075 336.319 347.353 336.319 346.416V332.926C336.319 331.989 336.56 331.279 337.041 330.798C337.548 330.291 338.245 330.038 339.131 330.038C340.043 330.038 340.74 330.291 341.221 330.798C341.703 331.279 341.943 331.989 341.943 332.926V334.902H341.563C341.867 333.382 342.539 332.204 343.577 331.368C344.616 330.532 345.959 330.063 347.605 329.962C348.239 329.911 348.72 330.076 349.049 330.456C349.404 330.811 349.594 331.406 349.619 332.242C349.67 333.027 349.505 333.648 349.125 334.104C348.771 334.56 348.163 334.839 347.301 334.94L346.427 335.016C344.983 335.143 343.907 335.561 343.197 336.27C342.513 336.979 342.171 338.005 342.171 339.348V346.416C342.171 347.353 341.918 348.075 341.411 348.582C340.93 349.089 340.221 349.342 339.283 349.342ZM360.613 349.418C358.612 349.418 356.864 349.025 355.369 348.24C353.9 347.455 352.76 346.327 351.949 344.858C351.139 343.389 350.733 341.653 350.733 339.652C350.733 338.157 350.961 336.815 351.417 335.624C351.873 334.433 352.532 333.42 353.393 332.584C354.28 331.723 355.331 331.077 356.547 330.646C357.763 330.19 359.119 329.962 360.613 329.962C362.615 329.962 364.35 330.355 365.819 331.14C367.314 331.925 368.467 333.04 369.277 334.484C370.113 335.928 370.531 337.651 370.531 339.652C370.531 341.172 370.291 342.527 369.809 343.718C369.353 344.909 368.695 345.935 367.833 346.796C366.972 347.657 365.921 348.316 364.679 348.772C363.463 349.203 362.108 349.418 360.613 349.418ZM360.613 345.124C361.449 345.124 362.171 344.921 362.779 344.516C363.387 344.111 363.869 343.515 364.223 342.73C364.578 341.919 364.755 340.893 364.755 339.652C364.755 337.803 364.375 336.447 363.615 335.586C362.855 334.699 361.855 334.256 360.613 334.256C359.803 334.256 359.081 334.446 358.447 334.826C357.839 335.206 357.358 335.801 357.003 336.612C356.674 337.397 356.509 338.411 356.509 339.652C356.509 341.501 356.889 342.882 357.649 343.794C358.409 344.681 359.397 345.124 360.613 345.124ZM380.748 349.418C378.494 349.418 376.809 348.797 375.694 347.556C374.58 346.289 374.022 344.415 374.022 341.932V324.794C374.022 323.831 374.263 323.109 374.744 322.628C375.251 322.121 375.973 321.868 376.91 321.868C377.822 321.868 378.519 322.121 379 322.628C379.507 323.109 379.76 323.831 379.76 324.794V341.704C379.76 342.743 379.976 343.515 380.406 344.022C380.862 344.503 381.458 344.744 382.192 344.744C382.395 344.744 382.585 344.731 382.762 344.706C382.94 344.681 383.13 344.668 383.332 344.668C383.738 344.617 384.016 344.744 384.168 345.048C384.346 345.327 384.434 345.897 384.434 346.758C384.434 347.518 384.282 348.101 383.978 348.506C383.674 348.886 383.206 349.139 382.572 349.266C382.319 349.291 382.028 349.317 381.698 349.342C381.369 349.393 381.052 349.418 380.748 349.418ZM396.181 349.418C393.977 349.418 392.077 349.025 390.481 348.24C388.91 347.429 387.694 346.302 386.833 344.858C385.997 343.389 385.579 341.666 385.579 339.69C385.579 337.765 385.984 336.08 386.795 334.636C387.606 333.167 388.733 332.027 390.177 331.216C391.646 330.38 393.306 329.962 395.155 329.962C396.498 329.962 397.714 330.19 398.803 330.646C399.892 331.077 400.83 331.71 401.615 332.546C402.4 333.357 402.996 334.357 403.401 335.548C403.806 336.713 404.009 338.018 404.009 339.462C404.009 339.943 403.857 340.311 403.553 340.564C403.249 340.792 402.806 340.906 402.223 340.906H390.291V337.942H399.867L399.259 338.474C399.259 337.435 399.107 336.574 398.803 335.89C398.499 335.181 398.056 334.649 397.473 334.294C396.916 333.939 396.219 333.762 395.383 333.762C394.446 333.762 393.648 333.977 392.989 334.408C392.33 334.839 391.824 335.459 391.469 336.27C391.114 337.081 390.937 338.056 390.937 339.196V339.5C390.937 341.425 391.38 342.844 392.267 343.756C393.179 344.668 394.522 345.124 396.295 345.124C396.903 345.124 397.6 345.048 398.385 344.896C399.17 344.744 399.905 344.503 400.589 344.174C401.172 343.895 401.691 343.807 402.147 343.908C402.603 343.984 402.958 344.187 403.211 344.516C403.464 344.845 403.604 345.225 403.629 345.656C403.68 346.087 403.591 346.517 403.363 346.948C403.135 347.353 402.755 347.695 402.223 347.974C401.362 348.455 400.386 348.81 399.297 349.038C398.233 349.291 397.194 349.418 396.181 349.418ZM425.218 349.418C423.597 349.418 422.165 349.025 420.924 348.24C419.708 347.455 418.758 346.327 418.074 344.858C417.39 343.389 417.048 341.653 417.048 339.652C417.048 337.651 417.39 335.928 418.074 334.484C418.758 333.04 419.708 331.925 420.924 331.14C422.165 330.355 423.597 329.962 425.218 329.962C426.687 329.962 427.979 330.317 429.094 331.026C430.234 331.735 431.007 332.66 431.412 333.8H430.994V324.794C430.994 323.831 431.235 323.109 431.716 322.628C432.197 322.121 432.907 321.868 433.844 321.868C434.756 321.868 435.465 322.121 435.972 322.628C436.479 323.109 436.732 323.831 436.732 324.794V346.416C436.732 347.353 436.479 348.075 435.972 348.582C435.491 349.089 434.794 349.342 433.882 349.342C432.97 349.342 432.261 349.089 431.754 348.582C431.273 348.075 431.032 347.353 431.032 346.416V343.832L431.45 345.314C431.095 346.555 430.335 347.556 429.17 348.316C428.03 349.051 426.713 349.418 425.218 349.418ZM426.928 345.124C427.764 345.124 428.486 344.921 429.094 344.516C429.702 344.111 430.183 343.515 430.538 342.73C430.893 341.919 431.07 340.893 431.07 339.652C431.07 337.803 430.69 336.447 429.93 335.586C429.17 334.699 428.169 334.256 426.928 334.256C426.117 334.256 425.395 334.446 424.762 334.826C424.154 335.206 423.673 335.801 423.318 336.612C422.989 337.397 422.824 338.411 422.824 339.652C422.824 341.501 423.204 342.882 423.964 343.794C424.724 344.681 425.712 345.124 426.928 345.124ZM447.461 349.418C446.093 349.418 444.865 349.152 443.775 348.62C442.686 348.088 441.837 347.366 441.229 346.454C440.621 345.542 440.317 344.516 440.317 343.376C440.317 342.008 440.672 340.931 441.381 340.146C442.091 339.335 443.243 338.765 444.839 338.436C446.435 338.081 448.551 337.904 451.185 337.904H453.199V340.868H451.223C449.931 340.868 448.88 340.944 448.069 341.096C447.284 341.223 446.714 341.451 446.359 341.78C446.03 342.109 445.865 342.565 445.865 343.148C445.865 343.857 446.106 344.44 446.587 344.896C447.094 345.352 447.816 345.58 448.753 345.58C449.488 345.58 450.134 345.415 450.691 345.086C451.274 344.731 451.73 344.263 452.059 343.68C452.389 343.072 452.553 342.388 452.553 341.628V337.258C452.553 336.143 452.3 335.358 451.793 334.902C451.287 334.421 450.425 334.18 449.209 334.18C448.525 334.18 447.778 334.269 446.967 334.446C446.182 334.598 445.308 334.864 444.345 335.244C443.788 335.497 443.294 335.561 442.863 335.434C442.433 335.282 442.103 335.029 441.875 334.674C441.647 334.294 441.533 333.889 441.533 333.458C441.533 333.002 441.66 332.571 441.913 332.166C442.167 331.735 442.585 331.419 443.167 331.216C444.358 330.735 445.473 330.405 446.511 330.228C447.575 330.051 448.551 329.962 449.437 329.962C451.388 329.962 452.984 330.253 454.225 330.836C455.492 331.393 456.442 332.267 457.075 333.458C457.709 334.623 458.025 336.131 458.025 337.98V346.416C458.025 347.353 457.797 348.075 457.341 348.582C456.885 349.089 456.227 349.342 455.365 349.342C454.504 349.342 453.833 349.089 453.351 348.582C452.895 348.075 452.667 347.353 452.667 346.416V345.01L452.933 345.238C452.781 346.099 452.452 346.847 451.945 347.48C451.464 348.088 450.843 348.569 450.083 348.924C449.323 349.253 448.449 349.418 447.461 349.418ZM469.45 349.418C468.335 349.418 467.182 349.317 465.992 349.114C464.826 348.911 463.762 348.569 462.8 348.088C462.293 347.835 461.926 347.518 461.698 347.138C461.495 346.733 461.406 346.327 461.432 345.922C461.457 345.517 461.584 345.149 461.812 344.82C462.065 344.491 462.382 344.275 462.762 344.174C463.167 344.047 463.61 344.085 464.092 344.288C465.13 344.719 466.08 345.023 466.942 345.2C467.803 345.377 468.652 345.466 469.488 345.466C470.577 345.466 471.362 345.301 471.844 344.972C472.35 344.617 472.604 344.161 472.604 343.604C472.604 343.097 472.439 342.717 472.11 342.464C471.78 342.211 471.299 342.033 470.666 341.932L466.676 341.21C465.105 340.931 463.889 340.361 463.028 339.5C462.192 338.613 461.774 337.486 461.774 336.118C461.774 334.851 462.128 333.762 462.838 332.85C463.547 331.913 464.522 331.203 465.764 330.722C467.03 330.215 468.462 329.962 470.058 329.962C471.198 329.962 472.249 330.063 473.212 330.266C474.174 330.469 475.099 330.798 475.986 331.254C476.442 331.482 476.758 331.786 476.936 332.166C477.138 332.546 477.202 332.939 477.126 333.344C477.075 333.749 476.923 334.117 476.67 334.446C476.416 334.775 476.087 334.991 475.682 335.092C475.302 335.193 474.858 335.143 474.352 334.94C473.541 334.56 472.794 334.294 472.11 334.142C471.426 333.965 470.767 333.876 470.134 333.876C468.994 333.876 468.17 334.066 467.664 334.446C467.157 334.801 466.904 335.257 466.904 335.814C466.904 336.245 467.043 336.612 467.322 336.916C467.626 337.195 468.082 337.385 468.69 337.486L472.68 338.208C474.326 338.487 475.58 339.044 476.442 339.88C477.303 340.691 477.734 341.805 477.734 343.224C477.734 345.149 476.974 346.669 475.454 347.784C473.959 348.873 471.958 349.418 469.45 349.418ZM498.766 349.418C497.651 349.418 496.499 349.317 495.308 349.114C494.143 348.911 493.079 348.569 492.116 348.088C491.609 347.835 491.242 347.518 491.014 347.138C490.811 346.733 490.723 346.327 490.748 345.922C490.773 345.517 490.9 345.149 491.128 344.82C491.381 344.491 491.698 344.275 492.078 344.174C492.483 344.047 492.927 344.085 493.408 344.288C494.447 344.719 495.397 345.023 496.258 345.2C497.119 345.377 497.968 345.466 498.804 345.466C499.893 345.466 500.679 345.301 501.16 344.972C501.667 344.617 501.92 344.161 501.92 343.604C501.92 343.097 501.755 342.717 501.426 342.464C501.097 342.211 500.615 342.033 499.982 341.932L495.992 341.21C494.421 340.931 493.205 340.361 492.344 339.5C491.508 338.613 491.09 337.486 491.09 336.118C491.09 334.851 491.445 333.762 492.154 332.85C492.863 331.913 493.839 331.203 495.08 330.722C496.347 330.215 497.778 329.962 499.374 329.962C500.514 329.962 501.565 330.063 502.528 330.266C503.491 330.469 504.415 330.798 505.302 331.254C505.758 331.482 506.075 331.786 506.252 332.166C506.455 332.546 506.518 332.939 506.442 333.344C506.391 333.749 506.239 334.117 505.986 334.446C505.733 334.775 505.403 334.991 504.998 335.092C504.618 335.193 504.175 335.143 503.668 334.94C502.857 334.56 502.11 334.294 501.426 334.142C500.742 333.965 500.083 333.876 499.45 333.876C498.31 333.876 497.487 334.066 496.98 334.446C496.473 334.801 496.22 335.257 496.22 335.814C496.22 336.245 496.359 336.612 496.638 336.916C496.942 337.195 497.398 337.385 498.006 337.486L501.996 338.208C503.643 338.487 504.897 339.044 505.758 339.88C506.619 340.691 507.05 341.805 507.05 343.224C507.05 345.149 506.29 346.669 504.77 347.784C503.275 348.873 501.274 349.418 498.766 349.418ZM517.203 349.418C515.632 349.418 514.328 349.127 513.289 348.544C512.25 347.961 511.478 347.087 510.971 345.922C510.49 344.731 510.249 343.262 510.249 341.514V332.926C510.249 331.963 510.49 331.241 510.971 330.76C511.478 330.279 512.187 330.038 513.099 330.038C514.011 330.038 514.72 330.279 515.227 330.76C515.734 331.241 515.987 331.963 515.987 332.926V341.666C515.987 342.781 516.215 343.617 516.671 344.174C517.127 344.706 517.849 344.972 518.837 344.972C519.926 344.972 520.813 344.592 521.497 343.832C522.206 343.047 522.561 342.021 522.561 340.754V332.926C522.561 331.963 522.802 331.241 523.283 330.76C523.79 330.279 524.499 330.038 525.411 330.038C526.348 330.038 527.058 330.279 527.539 330.76C528.046 331.241 528.299 331.963 528.299 332.926V346.416C528.299 348.367 527.374 349.342 525.525 349.342C524.613 349.342 523.916 349.089 523.435 348.582C522.954 348.075 522.713 347.353 522.713 346.416V343.87L523.283 345.352C522.726 346.644 521.928 347.645 520.889 348.354C519.85 349.063 518.622 349.418 517.203 349.418ZM539.047 349.418C537.679 349.418 536.45 349.152 535.361 348.62C534.272 348.088 533.423 347.366 532.815 346.454C532.207 345.542 531.903 344.516 531.903 343.376C531.903 342.008 532.258 340.931 532.967 340.146C533.676 339.335 534.829 338.765 536.425 338.436C538.021 338.081 540.136 337.904 542.771 337.904H544.785V340.868H542.809C541.517 340.868 540.466 340.944 539.655 341.096C538.87 341.223 538.3 341.451 537.945 341.78C537.616 342.109 537.451 342.565 537.451 343.148C537.451 343.857 537.692 344.44 538.173 344.896C538.68 345.352 539.402 345.58 540.339 345.58C541.074 345.58 541.72 345.415 542.277 345.086C542.86 344.731 543.316 344.263 543.645 343.68C543.974 343.072 544.139 342.388 544.139 341.628V337.258C544.139 336.143 543.886 335.358 543.379 334.902C542.872 334.421 542.011 334.18 540.795 334.18C540.111 334.18 539.364 334.269 538.553 334.446C537.768 334.598 536.894 334.864 535.931 335.244C535.374 335.497 534.88 335.561 534.449 335.434C534.018 335.282 533.689 335.029 533.461 334.674C533.233 334.294 533.119 333.889 533.119 333.458C533.119 333.002 533.246 332.571 533.499 332.166C533.752 331.735 534.17 331.419 534.753 331.216C535.944 330.735 537.058 330.405 538.097 330.228C539.161 330.051 540.136 329.962 541.023 329.962C542.974 329.962 544.57 330.253 545.811 330.836C547.078 331.393 548.028 332.267 548.661 333.458C549.294 334.623 549.611 336.131 549.611 337.98V346.416C549.611 347.353 549.383 348.075 548.927 348.582C548.471 349.089 547.812 349.342 546.951 349.342C546.09 349.342 545.418 349.089 544.937 348.582C544.481 348.075 544.253 347.353 544.253 346.416V345.01L544.519 345.238C544.367 346.099 544.038 346.847 543.531 347.48C543.05 348.088 542.429 348.569 541.669 348.924C540.909 349.253 540.035 349.418 539.047 349.418ZM561.036 349.418C559.921 349.418 558.768 349.317 557.578 349.114C556.412 348.911 555.348 348.569 554.386 348.088C553.879 347.835 553.512 347.518 553.284 347.138C553.081 346.733 552.992 346.327 553.018 345.922C553.043 345.517 553.17 345.149 553.398 344.82C553.651 344.491 553.968 344.275 554.348 344.174C554.753 344.047 555.196 344.085 555.678 344.288C556.716 344.719 557.666 345.023 558.528 345.2C559.389 345.377 560.238 345.466 561.074 345.466C562.163 345.466 562.948 345.301 563.43 344.972C563.936 344.617 564.19 344.161 564.19 343.604C564.19 343.097 564.025 342.717 563.696 342.464C563.366 342.211 562.885 342.033 562.252 341.932L558.262 341.21C556.691 340.931 555.475 340.361 554.614 339.5C553.778 338.613 553.36 337.486 553.36 336.118C553.36 334.851 553.714 333.762 554.424 332.85C555.133 331.913 556.108 331.203 557.35 330.722C558.616 330.215 560.048 329.962 561.644 329.962C562.784 329.962 563.835 330.063 564.798 330.266C565.76 330.469 566.685 330.798 567.572 331.254C568.028 331.482 568.344 331.786 568.522 332.166C568.724 332.546 568.788 332.939 568.712 333.344C568.661 333.749 568.509 334.117 568.256 334.446C568.002 334.775 567.673 334.991 567.268 335.092C566.888 335.193 566.444 335.143 565.938 334.94C565.127 334.56 564.38 334.294 563.696 334.142C563.012 333.965 562.353 333.876 561.719 333.876C560.58 333.876 559.756 334.066 559.25 334.446C558.743 334.801 558.49 335.257 558.49 335.814C558.49 336.245 558.629 336.612 558.908 336.916C559.212 337.195 559.668 337.385 560.276 337.486L564.266 338.208C565.912 338.487 567.166 339.044 568.028 339.88C568.889 340.691 569.32 341.805 569.32 343.224C569.32 345.149 568.56 346.669 567.04 347.784C565.545 348.873 563.544 349.418 561.036 349.418ZM262.536 397.342C261.599 397.342 260.877 397.089 260.37 396.582C259.889 396.075 259.648 395.353 259.648 394.416V382.636H258.28C257.571 382.636 257.013 382.446 256.608 382.066C256.228 381.686 256.038 381.167 256.038 380.508C256.038 379.799 256.228 379.267 256.608 378.912C257.013 378.532 257.571 378.342 258.28 378.342H261.32L259.648 379.862V378.684C259.648 376.024 260.307 374.01 261.624 372.642C262.941 371.274 264.892 370.451 267.476 370.172L268.578 370.058C269.287 370.007 269.845 370.109 270.25 370.362C270.681 370.59 270.959 370.907 271.086 371.312C271.238 371.717 271.276 372.135 271.2 372.566C271.124 372.997 270.947 373.377 270.668 373.706C270.415 374.01 270.085 374.175 269.68 374.2L268.882 374.276C267.615 374.352 266.716 374.669 266.184 375.226C265.652 375.783 265.386 376.607 265.386 377.696V378.988L264.664 378.342H275.304C276.216 378.342 276.913 378.621 277.394 379.178C277.901 379.71 278.154 380.47 278.154 381.458V394.188C278.154 395.176 277.913 395.949 277.432 396.506C276.951 397.038 276.241 397.304 275.304 397.304C274.392 397.304 273.683 397.038 273.176 396.506C272.669 395.949 272.416 395.176 272.416 394.188V382.636H265.386V394.416C265.386 396.367 264.436 397.342 262.536 397.342ZM275.418 374.922C274.405 374.922 273.619 374.681 273.062 374.2C272.53 373.693 272.264 372.984 272.264 372.072C272.264 371.135 272.53 370.425 273.062 369.944C273.619 369.437 274.405 369.184 275.418 369.184C276.431 369.184 277.204 369.437 277.736 369.944C278.293 370.425 278.572 371.135 278.572 372.072C278.572 372.984 278.293 373.693 277.736 374.2C277.204 374.681 276.431 374.922 275.418 374.922ZM285.473 397.342C284.536 397.342 283.814 397.089 283.307 396.582C282.826 396.075 282.585 395.353 282.585 394.416V380.926C282.585 379.989 282.826 379.279 283.307 378.798C283.814 378.291 284.51 378.038 285.397 378.038C286.309 378.038 287.006 378.291 287.487 378.798C287.968 379.279 288.209 379.989 288.209 380.926V383.092L287.791 381.838C288.374 380.597 289.235 379.647 290.375 378.988C291.54 378.304 292.858 377.962 294.327 377.962C295.822 377.962 297.05 378.253 298.013 378.836C298.976 379.393 299.698 380.255 300.179 381.42C300.66 382.56 300.901 384.017 300.901 385.79V394.416C300.901 395.353 300.648 396.075 300.141 396.582C299.66 397.089 298.95 397.342 298.013 397.342C297.101 397.342 296.392 397.089 295.885 396.582C295.404 396.075 295.163 395.353 295.163 394.416V386.056C295.163 384.764 294.922 383.839 294.441 383.282C293.985 382.699 293.276 382.408 292.313 382.408C291.097 382.408 290.122 382.788 289.387 383.548C288.678 384.308 288.323 385.321 288.323 386.588V394.416C288.323 396.367 287.373 397.342 285.473 397.342ZM311.492 397.418C310.124 397.418 308.896 397.152 307.806 396.62C306.717 396.088 305.868 395.366 305.26 394.454C304.652 393.542 304.348 392.516 304.348 391.376C304.348 390.008 304.703 388.931 305.412 388.146C306.122 387.335 307.274 386.765 308.87 386.436C310.466 386.081 312.582 385.904 315.216 385.904H317.23V388.868H315.254C313.962 388.868 312.911 388.944 312.1 389.096C311.315 389.223 310.745 389.451 310.39 389.78C310.061 390.109 309.896 390.565 309.896 391.148C309.896 391.857 310.137 392.44 310.618 392.896C311.125 393.352 311.847 393.58 312.784 393.58C313.519 393.58 314.165 393.415 314.722 393.086C315.305 392.731 315.761 392.263 316.09 391.68C316.42 391.072 316.584 390.388 316.584 389.628V385.258C316.584 384.143 316.331 383.358 315.824 382.902C315.318 382.421 314.456 382.18 313.24 382.18C312.556 382.18 311.809 382.269 310.998 382.446C310.213 382.598 309.339 382.864 308.376 383.244C307.819 383.497 307.325 383.561 306.894 383.434C306.464 383.282 306.134 383.029 305.906 382.674C305.678 382.294 305.564 381.889 305.564 381.458C305.564 381.002 305.691 380.571 305.944 380.166C306.198 379.735 306.616 379.419 307.198 379.216C308.389 378.735 309.504 378.405 310.542 378.228C311.606 378.051 312.582 377.962 313.468 377.962C315.419 377.962 317.015 378.253 318.256 378.836C319.523 379.393 320.473 380.267 321.106 381.458C321.74 382.623 322.056 384.131 322.056 385.98V394.416C322.056 395.353 321.828 396.075 321.372 396.582C320.916 397.089 320.258 397.342 319.396 397.342C318.535 397.342 317.864 397.089 317.382 396.582C316.926 396.075 316.698 395.353 316.698 394.416V393.01L316.964 393.238C316.812 394.099 316.483 394.847 315.976 395.48C315.495 396.088 314.874 396.569 314.114 396.924C313.354 397.253 312.48 397.418 311.492 397.418ZM329.225 397.342C328.287 397.342 327.565 397.089 327.059 396.582C326.577 396.075 326.337 395.353 326.337 394.416V380.926C326.337 379.989 326.577 379.279 327.059 378.798C327.565 378.291 328.262 378.038 329.149 378.038C330.061 378.038 330.757 378.291 331.239 378.798C331.72 379.279 331.961 379.989 331.961 380.926V383.092L331.543 381.838C332.125 380.597 332.987 379.647 334.127 378.988C335.292 378.304 336.609 377.962 338.079 377.962C339.573 377.962 340.802 378.253 341.765 378.836C342.727 379.393 343.449 380.255 343.931 381.42C344.412 382.56 344.653 384.017 344.653 385.79V394.416C344.653 395.353 344.399 396.075 343.893 396.582C343.411 397.089 342.702 397.342 341.765 397.342C340.853 397.342 340.143 397.089 339.637 396.582C339.155 396.075 338.915 395.353 338.915 394.416V386.056C338.915 384.764 338.674 383.839 338.193 383.282C337.737 382.699 337.027 382.408 336.065 382.408C334.849 382.408 333.873 382.788 333.139 383.548C332.429 384.308 332.075 385.321 332.075 386.588V394.416C332.075 396.367 331.125 397.342 329.225 397.342ZM358.018 397.418C355.992 397.418 354.218 397.025 352.698 396.24C351.204 395.429 350.051 394.289 349.24 392.82C348.43 391.351 348.024 389.615 348.024 387.614C348.024 386.119 348.252 384.777 348.708 383.586C349.164 382.395 349.823 381.382 350.684 380.546C351.571 379.71 352.635 379.077 353.876 378.646C355.118 378.19 356.498 377.962 358.018 377.962C358.804 377.962 359.64 378.063 360.526 378.266C361.413 378.443 362.287 378.76 363.148 379.216C363.655 379.444 363.997 379.773 364.174 380.204C364.377 380.609 364.453 381.04 364.402 381.496C364.352 381.927 364.187 382.319 363.908 382.674C363.655 383.003 363.326 383.231 362.92 383.358C362.515 383.459 362.059 383.383 361.552 383.13C361.071 382.851 360.564 382.649 360.032 382.522C359.526 382.395 359.044 382.332 358.588 382.332C357.828 382.332 357.157 382.459 356.574 382.712C355.992 382.94 355.498 383.282 355.092 383.738C354.712 384.169 354.408 384.713 354.18 385.372C353.978 386.031 353.876 386.791 353.876 387.652C353.876 389.324 354.282 390.641 355.092 391.604C355.928 392.541 357.094 393.01 358.588 393.01C359.044 393.01 359.526 392.959 360.032 392.858C360.539 392.731 361.046 392.529 361.552 392.25C362.059 391.997 362.515 391.933 362.92 392.06C363.326 392.187 363.642 392.427 363.87 392.782C364.124 393.111 364.263 393.504 364.288 393.96C364.339 394.391 364.263 394.821 364.06 395.252C363.883 395.657 363.554 395.974 363.072 396.202C362.211 396.633 361.35 396.937 360.488 397.114C359.627 397.317 358.804 397.418 358.018 397.418ZM357.6 404.486C357.119 404.486 356.6 404.448 356.042 404.372C355.51 404.321 355.016 404.22 354.56 404.068C354.13 403.941 353.826 403.713 353.648 403.384C353.496 403.055 353.458 402.725 353.534 402.396C353.61 402.067 353.788 401.813 354.066 401.636C354.37 401.459 354.75 401.446 355.206 401.598C355.536 401.699 355.852 401.775 356.156 401.826C356.46 401.877 356.764 401.902 357.068 401.902C357.727 401.902 358.221 401.813 358.55 401.636C358.88 401.484 359.044 401.243 359.044 400.914C359.044 400.661 358.93 400.471 358.702 400.344C358.5 400.217 358.145 400.154 357.638 400.154C357.461 400.154 357.284 400.154 357.106 400.154C356.929 400.179 356.752 400.205 356.574 400.23C356.397 400.281 356.232 400.293 356.08 400.268C355.954 400.243 355.827 400.179 355.7 400.078C355.599 399.977 355.536 399.837 355.51 399.66C355.485 399.508 355.485 399.305 355.51 399.052L355.928 396.24H358.816L358.322 399.128L356.916 398.596C357.22 398.495 357.524 398.419 357.828 398.368C358.132 398.317 358.411 398.292 358.664 398.292C359.779 398.292 360.666 398.533 361.324 399.014C361.983 399.521 362.312 400.217 362.312 401.104C362.312 402.117 361.869 402.928 360.982 403.536C360.121 404.169 358.994 404.486 357.6 404.486ZM373.317 397.418C371.949 397.418 370.72 397.152 369.631 396.62C368.541 396.088 367.693 395.366 367.085 394.454C366.477 393.542 366.173 392.516 366.173 391.376C366.173 390.008 366.527 388.931 367.237 388.146C367.946 387.335 369.099 386.765 370.695 386.436C372.291 386.081 374.406 385.904 377.041 385.904H379.055V388.868H377.079C375.787 388.868 374.735 388.944 373.925 389.096C373.139 389.223 372.569 389.451 372.215 389.78C371.885 390.109 371.721 390.565 371.721 391.148C371.721 391.857 371.961 392.44 372.443 392.896C372.949 393.352 373.671 393.58 374.609 393.58C375.343 393.58 375.989 393.415 376.547 393.086C377.129 392.731 377.585 392.263 377.915 391.68C378.244 391.072 378.409 390.388 378.409 389.628V385.258C378.409 384.143 378.155 383.358 377.649 382.902C377.142 382.421 376.281 382.18 375.065 382.18C374.381 382.18 373.633 382.269 372.823 382.446C372.037 382.598 371.163 382.864 370.201 383.244C369.643 383.497 369.149 383.561 368.719 383.434C368.288 383.282 367.959 383.029 367.731 382.674C367.503 382.294 367.389 381.889 367.389 381.458C367.389 381.002 367.515 380.571 367.769 380.166C368.022 379.735 368.44 379.419 369.023 379.216C370.213 378.735 371.328 378.405 372.367 378.228C373.431 378.051 374.406 377.962 375.293 377.962C377.243 377.962 378.839 378.253 380.081 378.836C381.347 379.393 382.297 380.267 382.931 381.458C383.564 382.623 383.881 384.131 383.881 385.98V394.416C383.881 395.353 383.653 396.075 383.197 396.582C382.741 397.089 382.082 397.342 381.221 397.342C380.359 397.342 379.688 397.089 379.207 396.582C378.751 396.075 378.523 395.353 378.523 394.416V393.01L378.789 393.238C378.637 394.099 378.307 394.847 377.801 395.48C377.319 396.088 376.699 396.569 375.939 396.924C375.179 397.253 374.305 397.418 373.317 397.418ZM395.305 397.418C394.19 397.418 393.038 397.317 391.847 397.114C390.682 396.911 389.618 396.569 388.655 396.088C388.148 395.835 387.781 395.518 387.553 395.138C387.35 394.733 387.262 394.327 387.287 393.922C387.312 393.517 387.439 393.149 387.667 392.82C387.92 392.491 388.237 392.275 388.617 392.174C389.022 392.047 389.466 392.085 389.947 392.288C390.986 392.719 391.936 393.023 392.797 393.2C393.658 393.377 394.507 393.466 395.343 393.466C396.432 393.466 397.218 393.301 397.699 392.972C398.206 392.617 398.459 392.161 398.459 391.604C398.459 391.097 398.294 390.717 397.965 390.464C397.636 390.211 397.154 390.033 396.521 389.932L392.531 389.21C390.96 388.931 389.744 388.361 388.883 387.5C388.047 386.613 387.629 385.486 387.629 384.118C387.629 382.851 387.984 381.762 388.693 380.85C389.402 379.913 390.378 379.203 391.619 378.722C392.886 378.215 394.317 377.962 395.913 377.962C397.053 377.962 398.104 378.063 399.067 378.266C400.03 378.469 400.954 378.798 401.841 379.254C402.297 379.482 402.614 379.786 402.791 380.166C402.994 380.546 403.057 380.939 402.981 381.344C402.93 381.749 402.778 382.117 402.525 382.446C402.272 382.775 401.942 382.991 401.537 383.092C401.157 383.193 400.714 383.143 400.207 382.94C399.396 382.56 398.649 382.294 397.965 382.142C397.281 381.965 396.622 381.876 395.989 381.876C394.849 381.876 394.026 382.066 393.519 382.446C393.012 382.801 392.759 383.257 392.759 383.814C392.759 384.245 392.898 384.612 393.177 384.916C393.481 385.195 393.937 385.385 394.545 385.486L398.535 386.208C400.182 386.487 401.436 387.044 402.297 387.88C403.158 388.691 403.589 389.805 403.589 391.224C403.589 393.149 402.829 394.669 401.309 395.784C399.814 396.873 397.813 397.418 395.305 397.418Z" fill="white"/>
<path d="M263.456 442.64C263.659 442.64 263.819 442.699 263.936 442.816C264.053 442.933 264.112 443.083 264.112 443.264V453.44C264.112 453.632 264.053 453.787 263.936 453.904C263.819 454.021 263.659 454.08 263.456 454.08C263.253 454.08 263.093 454.021 262.976 453.904C262.869 453.787 262.816 453.632 262.816 453.44V452.576C262.581 453.067 262.235 453.445 261.776 453.712C261.328 453.979 260.8 454.112 260.192 454.112C259.509 454.112 258.907 453.941 258.384 453.6C257.861 453.259 257.456 452.784 257.168 452.176C256.88 451.557 256.736 450.843 256.736 450.032C256.736 449.232 256.88 448.528 257.168 447.92C257.456 447.312 257.861 446.843 258.384 446.512C258.907 446.181 259.509 446.016 260.192 446.016C260.8 446.016 261.328 446.149 261.776 446.416C262.235 446.683 262.581 447.061 262.816 447.552V443.264C262.816 443.072 262.869 442.923 262.976 442.816C263.093 442.699 263.253 442.64 263.456 442.64ZM260.448 453.04C261.205 453.04 261.787 452.784 262.192 452.272C262.608 451.749 262.816 451.013 262.816 450.064C262.816 449.115 262.608 448.384 262.192 447.872C261.787 447.36 261.205 447.104 260.448 447.104C259.691 447.104 259.099 447.36 258.672 447.872C258.256 448.384 258.048 449.104 258.048 450.032C258.048 450.981 258.256 451.723 258.672 452.256C259.099 452.779 259.691 453.04 260.448 453.04ZM272.545 452.192C272.662 452.192 272.763 452.24 272.849 452.336C272.934 452.432 272.977 452.555 272.977 452.704C272.977 452.971 272.79 453.216 272.417 453.44C272.033 453.664 271.627 453.835 271.201 453.952C270.774 454.059 270.358 454.112 269.953 454.112C268.747 454.112 267.793 453.755 267.089 453.04C266.395 452.325 266.049 451.339 266.049 450.08C266.049 449.28 266.203 448.576 266.513 447.968C266.822 447.349 267.254 446.869 267.809 446.528C268.374 446.187 269.014 446.016 269.729 446.016C270.742 446.016 271.547 446.347 272.145 447.008C272.742 447.669 273.041 448.565 273.041 449.696C273.041 449.909 272.998 450.064 272.913 450.16C272.827 450.256 272.689 450.304 272.497 450.304H267.345C267.441 452.139 268.31 453.056 269.953 453.056C270.369 453.056 270.726 453.003 271.025 452.896C271.323 452.779 271.643 452.624 271.985 452.432C272.262 452.272 272.449 452.192 272.545 452.192ZM269.745 447.024C269.062 447.024 268.513 447.237 268.097 447.664C267.691 448.091 267.451 448.693 267.377 449.472H271.905C271.883 448.683 271.686 448.08 271.313 447.664C270.939 447.237 270.417 447.024 269.745 447.024ZM282.515 443.744C281.95 443.787 281.523 443.968 281.235 444.288C280.947 444.597 280.803 445.067 280.803 445.696V446.208H282.579C282.76 446.208 282.899 446.256 282.995 446.352C283.091 446.448 283.139 446.576 283.139 446.736C283.139 446.896 283.091 447.019 282.995 447.104C282.899 447.189 282.76 447.232 282.579 447.232H280.803V453.44C280.803 453.643 280.739 453.803 280.611 453.92C280.494 454.027 280.344 454.08 280.163 454.08C279.971 454.08 279.811 454.027 279.683 453.92C279.566 453.803 279.507 453.643 279.507 453.44V447.232H278.435C278.254 447.232 278.11 447.189 278.003 447.104C277.907 447.008 277.859 446.885 277.859 446.736C277.859 446.576 277.907 446.448 278.003 446.352C278.11 446.256 278.254 446.208 278.435 446.208H279.507V445.92C279.507 444.96 279.747 444.208 280.227 443.664C280.707 443.109 281.395 442.8 282.291 442.736L282.707 442.704C282.984 442.683 283.182 442.709 283.299 442.784C283.427 442.859 283.491 442.992 283.491 443.184C283.491 443.493 283.304 443.669 282.931 443.712L282.515 443.744ZM287.479 454.112C286.743 454.112 286.092 453.947 285.527 453.616C284.972 453.285 284.54 452.816 284.231 452.208C283.932 451.589 283.783 450.875 283.783 450.064C283.783 449.253 283.932 448.544 284.231 447.936C284.54 447.317 284.972 446.843 285.527 446.512C286.092 446.181 286.743 446.016 287.479 446.016C288.215 446.016 288.866 446.181 289.431 446.512C289.996 446.843 290.428 447.317 290.727 447.936C291.036 448.544 291.191 449.253 291.191 450.064C291.191 450.875 291.036 451.589 290.727 452.208C290.428 452.816 289.996 453.285 289.431 453.616C288.866 453.947 288.215 454.112 287.479 454.112ZM287.479 453.04C288.247 453.04 288.834 452.789 289.239 452.288C289.655 451.776 289.863 451.035 289.863 450.064C289.863 449.115 289.655 448.384 289.239 447.872C288.823 447.349 288.236 447.088 287.479 447.088C286.722 447.088 286.135 447.349 285.719 447.872C285.303 448.384 285.095 449.115 285.095 450.064C285.095 451.024 285.298 451.76 285.703 452.272C286.119 452.784 286.711 453.04 287.479 453.04ZM296.978 446.048C297.426 446.016 297.65 446.197 297.65 446.592C297.65 446.763 297.602 446.901 297.506 447.008C297.41 447.104 297.245 447.163 297.01 447.184L296.53 447.232C295.815 447.296 295.282 447.552 294.93 448C294.589 448.437 294.418 448.955 294.418 449.552V453.44C294.418 453.653 294.359 453.813 294.242 453.92C294.125 454.027 293.97 454.08 293.778 454.08C293.586 454.08 293.426 454.027 293.298 453.92C293.181 453.803 293.122 453.643 293.122 453.44V446.688C293.122 446.485 293.186 446.331 293.314 446.224C293.442 446.107 293.597 446.048 293.778 446.048C293.949 446.048 294.093 446.107 294.21 446.224C294.327 446.331 294.386 446.48 294.386 446.672V447.568C294.61 447.099 294.925 446.741 295.33 446.496C295.746 446.251 296.221 446.107 296.754 446.064L296.978 446.048ZM307.435 446.016C309.163 446.016 310.027 447.045 310.027 449.104V453.44C310.027 453.643 309.968 453.803 309.851 453.92C309.733 454.027 309.579 454.08 309.387 454.08C309.195 454.08 309.035 454.027 308.907 453.92C308.789 453.803 308.731 453.643 308.731 453.44V449.136C308.731 448.421 308.603 447.904 308.347 447.584C308.091 447.264 307.691 447.104 307.147 447.104C306.496 447.104 305.984 447.323 305.611 447.76C305.237 448.197 305.051 448.789 305.051 449.536V453.44C305.051 453.643 304.987 453.803 304.859 453.92C304.741 454.027 304.587 454.08 304.395 454.08C304.203 454.08 304.048 454.027 303.931 453.92C303.813 453.803 303.755 453.643 303.755 453.44V449.136C303.755 448.421 303.627 447.904 303.371 447.584C303.115 447.264 302.709 447.104 302.155 447.104C301.515 447.104 301.003 447.323 300.619 447.76C300.245 448.197 300.059 448.789 300.059 449.536V453.44C300.059 453.643 300 453.803 299.883 453.92C299.765 454.027 299.611 454.08 299.419 454.08C299.227 454.08 299.067 454.027 298.939 453.92C298.821 453.803 298.763 453.643 298.763 453.44V446.688C298.763 446.496 298.821 446.341 298.939 446.224C299.067 446.107 299.227 446.048 299.419 446.048C299.6 446.048 299.749 446.107 299.867 446.224C299.984 446.331 300.043 446.48 300.043 446.672V447.44C300.277 446.981 300.603 446.629 301.019 446.384C301.435 446.139 301.915 446.016 302.459 446.016C303.675 446.016 304.469 446.528 304.843 447.552C305.067 447.083 305.408 446.709 305.867 446.432C306.325 446.155 306.848 446.016 307.435 446.016ZM315.572 446.016C317.524 446.016 318.5 447.04 318.5 449.088V453.44C318.5 453.632 318.441 453.787 318.324 453.904C318.217 454.021 318.068 454.08 317.876 454.08C317.684 454.08 317.529 454.021 317.412 453.904C317.294 453.787 317.236 453.632 317.236 453.44V452.672C317.033 453.131 316.724 453.488 316.308 453.744C315.892 453.989 315.412 454.112 314.868 454.112C314.366 454.112 313.902 454.011 313.476 453.808C313.06 453.605 312.729 453.323 312.484 452.96C312.238 452.597 312.116 452.197 312.116 451.76C312.116 451.173 312.265 450.72 312.564 450.4C312.862 450.069 313.353 449.835 314.036 449.696C314.718 449.547 315.668 449.472 316.884 449.472H317.236V448.944C317.236 448.304 317.102 447.835 316.836 447.536C316.58 447.237 316.158 447.088 315.572 447.088C314.846 447.088 314.11 447.285 313.364 447.68C313.076 447.861 312.873 447.952 312.756 447.952C312.628 447.952 312.521 447.904 312.436 447.808C312.35 447.712 312.308 447.589 312.308 447.44C312.308 447.291 312.35 447.163 312.436 447.056C312.532 446.939 312.681 446.821 312.884 446.704C313.257 446.491 313.678 446.325 314.148 446.208C314.628 446.08 315.102 446.016 315.572 446.016ZM315.044 453.088C315.684 453.088 316.206 452.875 316.612 452.448C317.028 452.011 317.236 451.451 317.236 450.768V450.304H316.948C316.009 450.304 315.294 450.347 314.804 450.432C314.313 450.507 313.961 450.64 313.748 450.832C313.545 451.013 313.444 451.285 313.444 451.648C313.444 452.064 313.593 452.411 313.892 452.688C314.201 452.955 314.585 453.088 315.044 453.088ZM328.853 446.048C329.301 446.016 329.525 446.197 329.525 446.592C329.525 446.763 329.477 446.901 329.381 447.008C329.285 447.104 329.12 447.163 328.885 447.184L328.405 447.232C327.69 447.296 327.157 447.552 326.805 448C326.464 448.437 326.293 448.955 326.293 449.552V453.44C326.293 453.653 326.234 453.813 326.117 453.92C326 454.027 325.845 454.08 325.653 454.08C325.461 454.08 325.301 454.027 325.173 453.92C325.056 453.803 324.997 453.643 324.997 453.44V446.688C324.997 446.485 325.061 446.331 325.189 446.224C325.317 446.107 325.472 446.048 325.653 446.048C325.824 446.048 325.968 446.107 326.085 446.224C326.202 446.331 326.261 446.48 326.261 446.672V447.568C326.485 447.099 326.8 446.741 327.205 446.496C327.621 446.251 328.096 446.107 328.629 446.064L328.853 446.048ZM333.759 446.016C335.711 446.016 336.687 447.04 336.687 449.088V453.44C336.687 453.632 336.628 453.787 336.511 453.904C336.404 454.021 336.255 454.08 336.063 454.08C335.871 454.08 335.716 454.021 335.599 453.904C335.482 453.787 335.423 453.632 335.423 453.44V452.672C335.22 453.131 334.911 453.488 334.495 453.744C334.079 453.989 333.599 454.112 333.055 454.112C332.554 454.112 332.09 454.011 331.663 453.808C331.247 453.605 330.916 453.323 330.671 452.96C330.426 452.597 330.303 452.197 330.303 451.76C330.303 451.173 330.452 450.72 330.751 450.4C331.05 450.069 331.54 449.835 332.223 449.696C332.906 449.547 333.855 449.472 335.071 449.472H335.423V448.944C335.423 448.304 335.29 447.835 335.023 447.536C334.767 447.237 334.346 447.088 333.759 447.088C333.034 447.088 332.298 447.285 331.551 447.68C331.263 447.861 331.06 447.952 330.943 447.952C330.815 447.952 330.708 447.904 330.623 447.808C330.538 447.712 330.495 447.589 330.495 447.44C330.495 447.291 330.538 447.163 330.623 447.056C330.719 446.939 330.868 446.821 331.071 446.704C331.444 446.491 331.866 446.325 332.335 446.208C332.815 446.08 333.29 446.016 333.759 446.016ZM333.231 453.088C333.871 453.088 334.394 452.875 334.799 452.448C335.215 452.011 335.423 451.451 335.423 450.768V450.304H335.135C334.196 450.304 333.482 450.347 332.991 450.432C332.5 450.507 332.148 450.64 331.935 450.832C331.732 451.013 331.631 451.285 331.631 451.648C331.631 452.064 331.78 452.411 332.079 452.688C332.388 452.955 332.772 453.088 333.231 453.088ZM334.047 445.168C333.962 445.232 333.876 445.264 333.791 445.264C333.684 445.264 333.594 445.232 333.519 445.168C333.444 445.093 333.407 445.008 333.407 444.912C333.407 444.827 333.439 444.747 333.503 444.672L335.359 442.24C335.551 441.995 335.77 441.872 336.015 441.872C336.186 441.872 336.33 441.931 336.447 442.048C336.564 442.155 336.623 442.293 336.623 442.464C336.623 442.688 336.516 442.891 336.303 443.072L334.047 445.168ZM342.979 446.016C343.662 446.016 344.265 446.187 344.787 446.528C345.31 446.869 345.715 447.349 346.003 447.968C346.291 448.576 346.435 449.285 346.435 450.096C346.435 450.907 346.291 451.616 346.003 452.224C345.715 452.821 345.31 453.285 344.787 453.616C344.275 453.947 343.673 454.112 342.979 454.112C342.371 454.112 341.838 453.979 341.379 453.712C340.931 453.445 340.59 453.067 340.355 452.576V456.336C340.355 456.528 340.297 456.677 340.179 456.784C340.073 456.901 339.918 456.96 339.715 456.96C339.513 456.96 339.353 456.901 339.235 456.784C339.118 456.667 339.059 456.517 339.059 456.336V446.688C339.059 446.496 339.118 446.341 339.235 446.224C339.353 446.107 339.513 446.048 339.715 446.048C339.918 446.048 340.073 446.107 340.179 446.224C340.297 446.341 340.355 446.496 340.355 446.688V447.552C340.59 447.061 340.931 446.683 341.379 446.416C341.838 446.149 342.371 446.016 342.979 446.016ZM342.723 453.04C343.481 453.04 344.067 452.784 344.483 452.272C344.899 451.76 345.107 451.035 345.107 450.096C345.107 449.157 344.899 448.427 344.483 447.904C344.067 447.371 343.481 447.104 342.723 447.104C341.966 447.104 341.379 447.36 340.963 447.872C340.558 448.384 340.355 449.115 340.355 450.064C340.355 451.013 340.558 451.749 340.963 452.272C341.379 452.784 341.966 453.04 342.723 453.04ZM349.028 454.08C348.836 454.08 348.676 454.027 348.548 453.92C348.431 453.803 348.372 453.643 348.372 453.44V446.688C348.372 446.485 348.431 446.331 348.548 446.224C348.676 446.107 348.836 446.048 349.028 446.048C349.22 446.048 349.375 446.107 349.492 446.224C349.609 446.331 349.668 446.485 349.668 446.688V453.44C349.668 453.653 349.609 453.813 349.492 453.92C349.375 454.027 349.22 454.08 349.028 454.08ZM349.028 444.368C348.772 444.368 348.564 444.293 348.404 444.144C348.244 443.995 348.164 443.797 348.164 443.552C348.164 443.317 348.244 443.125 348.404 442.976C348.564 442.827 348.772 442.752 349.028 442.752C349.284 442.752 349.492 442.827 349.652 442.976C349.812 443.125 349.892 443.317 349.892 443.552C349.892 443.797 349.812 443.995 349.652 444.144C349.492 444.293 349.284 444.368 349.028 444.368ZM358.347 442.64C358.549 442.64 358.709 442.699 358.827 442.816C358.944 442.933 359.003 443.083 359.003 443.264V453.44C359.003 453.632 358.944 453.787 358.827 453.904C358.709 454.021 358.549 454.08 358.347 454.08C358.144 454.08 357.984 454.021 357.867 453.904C357.76 453.787 357.707 453.632 357.707 453.44V452.576C357.472 453.067 357.125 453.445 356.667 453.712C356.219 453.979 355.691 454.112 355.083 454.112C354.4 454.112 353.797 453.941 353.275 453.6C352.752 453.259 352.347 452.784 352.059 452.176C351.771 451.557 351.627 450.843 351.627 450.032C351.627 449.232 351.771 448.528 352.059 447.92C352.347 447.312 352.752 446.843 353.275 446.512C353.797 446.181 354.4 446.016 355.083 446.016C355.691 446.016 356.219 446.149 356.667 446.416C357.125 446.683 357.472 447.061 357.707 447.552V443.264C357.707 443.072 357.76 442.923 357.867 442.816C357.984 442.699 358.144 442.64 358.347 442.64ZM355.339 453.04C356.096 453.04 356.677 452.784 357.083 452.272C357.499 451.749 357.707 451.013 357.707 450.064C357.707 449.115 357.499 448.384 357.083 447.872C356.677 447.36 356.096 447.104 355.339 447.104C354.581 447.104 353.989 447.36 353.563 447.872C353.147 448.384 352.939 449.104 352.939 450.032C352.939 450.981 353.147 451.723 353.563 452.256C353.989 452.779 354.581 453.04 355.339 453.04ZM364.587 446.016C366.539 446.016 367.515 447.04 367.515 449.088V453.44C367.515 453.632 367.456 453.787 367.339 453.904C367.232 454.021 367.083 454.08 366.891 454.08C366.699 454.08 366.544 454.021 366.427 453.904C366.31 453.787 366.251 453.632 366.251 453.44V452.672C366.048 453.131 365.739 453.488 365.323 453.744C364.907 453.989 364.427 454.112 363.883 454.112C363.382 454.112 362.918 454.011 362.491 453.808C362.075 453.605 361.744 453.323 361.499 452.96C361.254 452.597 361.131 452.197 361.131 451.76C361.131 451.173 361.28 450.72 361.579 450.4C361.878 450.069 362.368 449.835 363.051 449.696C363.734 449.547 364.683 449.472 365.899 449.472H366.251V448.944C366.251 448.304 366.118 447.835 365.851 447.536C365.595 447.237 365.174 447.088 364.587 447.088C363.862 447.088 363.126 447.285 362.379 447.68C362.091 447.861 361.888 447.952 361.771 447.952C361.643 447.952 361.536 447.904 361.451 447.808C361.366 447.712 361.323 447.589 361.323 447.44C361.323 447.291 361.366 447.163 361.451 447.056C361.547 446.939 361.696 446.821 361.899 446.704C362.272 446.491 362.694 446.325 363.163 446.208C363.643 446.08 364.118 446.016 364.587 446.016ZM364.059 453.088C364.699 453.088 365.222 452.875 365.627 452.448C366.043 452.011 366.251 451.451 366.251 450.768V450.304H365.963C365.024 450.304 364.31 450.347 363.819 450.432C363.328 450.507 362.976 450.64 362.763 450.832C362.56 451.013 362.459 451.285 362.459 451.648C362.459 452.064 362.608 452.411 362.907 452.688C363.216 452.955 363.6 453.088 364.059 453.088ZM380.045 452.192C380.162 452.192 380.263 452.24 380.349 452.336C380.434 452.432 380.477 452.555 380.477 452.704C380.477 452.971 380.29 453.216 379.917 453.44C379.533 453.664 379.127 453.835 378.701 453.952C378.274 454.059 377.858 454.112 377.453 454.112C376.247 454.112 375.293 453.755 374.589 453.04C373.895 452.325 373.549 451.339 373.549 450.08C373.549 449.28 373.703 448.576 374.013 447.968C374.322 447.349 374.754 446.869 375.309 446.528C375.874 446.187 376.514 446.016 377.229 446.016C378.242 446.016 379.047 446.347 379.645 447.008C380.242 447.669 380.541 448.565 380.541 449.696C380.541 449.909 380.498 450.064 380.413 450.16C380.327 450.256 380.189 450.304 379.997 450.304H374.845C374.941 452.139 375.81 453.056 377.453 453.056C377.869 453.056 378.226 453.003 378.525 452.896C378.823 452.779 379.143 452.624 379.485 452.432C379.762 452.272 379.949 452.192 380.045 452.192ZM377.245 447.024C376.562 447.024 376.013 447.237 375.597 447.664C375.191 448.091 374.951 448.693 374.877 449.472H379.405C379.383 448.683 379.186 448.08 378.813 447.664C378.439 447.237 377.917 447.024 377.245 447.024ZM389.199 454.112C388.708 454.112 388.239 454.053 387.791 453.936C387.354 453.819 386.964 453.653 386.623 453.44C386.431 453.312 386.292 453.195 386.207 453.088C386.132 452.971 386.095 452.832 386.095 452.672C386.095 452.533 386.132 452.421 386.207 452.336C386.292 452.24 386.399 452.192 386.527 452.192C386.655 452.192 386.842 452.272 387.087 452.432C387.407 452.624 387.722 452.779 388.031 452.896C388.351 453.003 388.746 453.056 389.215 453.056C389.791 453.056 390.239 452.955 390.559 452.752C390.879 452.549 391.039 452.256 391.039 451.872C391.039 451.637 390.98 451.451 390.863 451.312C390.746 451.163 390.543 451.035 390.255 450.928C389.967 450.811 389.546 450.693 388.991 450.576C388.052 450.373 387.38 450.101 386.975 449.76C386.57 449.419 386.367 448.955 386.367 448.368C386.367 447.909 386.495 447.504 386.751 447.152C387.007 446.8 387.359 446.523 387.807 446.32C388.266 446.117 388.783 446.016 389.359 446.016C389.775 446.016 390.175 446.075 390.559 446.192C390.954 446.299 391.3 446.453 391.599 446.656C391.962 446.912 392.143 447.179 392.143 447.456C392.143 447.595 392.1 447.712 392.015 447.808C391.93 447.904 391.828 447.952 391.711 447.952C391.583 447.952 391.391 447.861 391.135 447.68C390.836 447.488 390.554 447.339 390.287 447.232C390.02 447.125 389.69 447.072 389.295 447.072C388.794 447.072 388.388 447.184 388.079 447.408C387.78 447.632 387.631 447.931 387.631 448.304C387.631 448.539 387.684 448.731 387.791 448.88C387.908 449.019 388.095 449.147 388.351 449.264C388.618 449.371 388.996 449.477 389.487 449.584C390.212 449.744 390.772 449.92 391.167 450.112C391.572 450.304 391.86 450.539 392.031 450.816C392.202 451.093 392.287 451.445 392.287 451.872C392.287 452.544 392.004 453.088 391.439 453.504C390.874 453.909 390.127 454.112 389.199 454.112ZM400.295 452.192C400.412 452.192 400.513 452.24 400.599 452.336C400.684 452.432 400.727 452.555 400.727 452.704C400.727 452.971 400.54 453.216 400.167 453.44C399.783 453.664 399.377 453.835 398.951 453.952C398.524 454.059 398.108 454.112 397.703 454.112C396.497 454.112 395.543 453.755 394.839 453.04C394.145 452.325 393.799 451.339 393.799 450.08C393.799 449.28 393.953 448.576 394.263 447.968C394.572 447.349 395.004 446.869 395.559 446.528C396.124 446.187 396.764 446.016 397.479 446.016C398.492 446.016 399.297 446.347 399.895 447.008C400.492 447.669 400.791 448.565 400.791 449.696C400.791 449.909 400.748 450.064 400.663 450.16C400.577 450.256 400.439 450.304 400.247 450.304H395.095C395.191 452.139 396.06 453.056 397.703 453.056C398.119 453.056 398.476 453.003 398.775 452.896C399.073 452.779 399.393 452.624 399.735 452.432C400.012 452.272 400.199 452.192 400.295 452.192ZM397.495 447.024C396.812 447.024 396.263 447.237 395.847 447.664C395.441 448.091 395.201 448.693 395.127 449.472H399.655C399.633 448.683 399.436 448.08 399.063 447.664C398.689 447.237 398.167 447.024 397.495 447.024ZM409.02 446.048C409.223 446.048 409.383 446.107 409.5 446.224C409.617 446.341 409.676 446.496 409.676 446.688V453.472C409.676 454.635 409.377 455.509 408.78 456.096C408.183 456.693 407.297 456.992 406.124 456.992C404.983 456.992 404.033 456.768 403.276 456.32C402.892 456.107 402.7 455.861 402.7 455.584C402.7 455.435 402.737 455.312 402.812 455.216C402.897 455.12 403.004 455.072 403.132 455.072C403.239 455.072 403.431 455.147 403.708 455.296C404.081 455.488 404.449 455.643 404.812 455.76C405.175 455.877 405.607 455.936 406.108 455.936C406.865 455.936 407.436 455.733 407.82 455.328C408.204 454.933 408.396 454.352 408.396 453.584V452.208C408.172 452.709 407.825 453.093 407.356 453.36C406.897 453.627 406.353 453.76 405.724 453.76C405.041 453.76 404.433 453.6 403.9 453.28C403.377 452.96 402.967 452.507 402.668 451.92C402.38 451.333 402.236 450.656 402.236 449.888C402.236 449.12 402.38 448.443 402.668 447.856C402.967 447.269 403.377 446.816 403.9 446.496C404.433 446.176 405.041 446.016 405.724 446.016C406.343 446.016 406.881 446.149 407.34 446.416C407.799 446.683 408.145 447.061 408.38 447.552V446.688C408.38 446.496 408.433 446.341 408.54 446.224C408.657 446.107 408.817 446.048 409.02 446.048ZM405.98 452.688C406.727 452.688 407.313 452.443 407.74 451.952C408.167 451.451 408.38 450.763 408.38 449.888C408.38 449.024 408.167 448.347 407.74 447.856C407.324 447.355 406.737 447.104 405.98 447.104C405.223 447.104 404.625 447.355 404.188 447.856C403.761 448.347 403.548 449.024 403.548 449.888C403.548 450.763 403.761 451.451 404.188 451.952C404.625 452.443 405.223 452.688 405.98 452.688ZM417.995 446.048C418.198 446.048 418.352 446.107 418.459 446.224C418.576 446.341 418.635 446.496 418.635 446.688V453.456C418.635 453.637 418.576 453.787 418.459 453.904C418.352 454.021 418.198 454.08 417.995 454.08C417.803 454.08 417.648 454.027 417.531 453.92C417.424 453.803 417.371 453.653 417.371 453.472V452.672C417.126 453.141 416.779 453.499 416.331 453.744C415.894 453.989 415.398 454.112 414.843 454.112C413.915 454.112 413.216 453.856 412.747 453.344C412.278 452.821 412.043 452.053 412.043 451.04V446.688C412.043 446.496 412.102 446.341 412.219 446.224C412.336 446.107 412.496 446.048 412.699 446.048C412.902 446.048 413.056 446.107 413.163 446.224C413.28 446.341 413.339 446.496 413.339 446.688V451.008C413.339 451.701 413.478 452.213 413.755 452.544C414.032 452.864 414.47 453.024 415.067 453.024C415.75 453.024 416.299 452.805 416.715 452.368C417.131 451.92 417.339 451.333 417.339 450.608V446.688C417.339 446.496 417.398 446.341 417.515 446.224C417.632 446.107 417.792 446.048 417.995 446.048ZM424.9 446.048C425.348 446.016 425.572 446.197 425.572 446.592C425.572 446.763 425.524 446.901 425.428 447.008C425.332 447.104 425.166 447.163 424.932 447.184L424.452 447.232C423.737 447.296 423.204 447.552 422.852 448C422.51 448.437 422.34 448.955 422.34 449.552V453.44C422.34 453.653 422.281 453.813 422.164 453.92C422.046 454.027 421.892 454.08 421.7 454.08C421.508 454.08 421.348 454.027 421.22 453.92C421.102 453.803 421.044 453.643 421.044 453.44V446.688C421.044 446.485 421.108 446.331 421.236 446.224C421.364 446.107 421.518 446.048 421.7 446.048C421.87 446.048 422.014 446.107 422.132 446.224C422.249 446.331 422.308 446.48 422.308 446.672V447.568C422.532 447.099 422.846 446.741 423.252 446.496C423.668 446.251 424.142 446.107 424.676 446.064L424.9 446.048ZM429.806 446.016C431.758 446.016 432.734 447.04 432.734 449.088V453.44C432.734 453.632 432.675 453.787 432.558 453.904C432.451 454.021 432.302 454.08 432.11 454.08C431.918 454.08 431.763 454.021 431.646 453.904C431.529 453.787 431.47 453.632 431.47 453.44V452.672C431.267 453.131 430.958 453.488 430.542 453.744C430.126 453.989 429.646 454.112 429.102 454.112C428.601 454.112 428.137 454.011 427.71 453.808C427.294 453.605 426.963 453.323 426.718 452.96C426.473 452.597 426.35 452.197 426.35 451.76C426.35 451.173 426.499 450.72 426.798 450.4C427.097 450.069 427.587 449.835 428.27 449.696C428.953 449.547 429.902 449.472 431.118 449.472H431.47V448.944C431.47 448.304 431.337 447.835 431.07 447.536C430.814 447.237 430.393 447.088 429.806 447.088C429.081 447.088 428.345 447.285 427.598 447.68C427.31 447.861 427.107 447.952 426.99 447.952C426.862 447.952 426.755 447.904 426.67 447.808C426.585 447.712 426.542 447.589 426.542 447.44C426.542 447.291 426.585 447.163 426.67 447.056C426.766 446.939 426.915 446.821 427.118 446.704C427.491 446.491 427.913 446.325 428.382 446.208C428.862 446.08 429.337 446.016 429.806 446.016ZM429.278 453.088C429.918 453.088 430.441 452.875 430.846 452.448C431.262 452.011 431.47 451.451 431.47 450.768V450.304H431.182C430.243 450.304 429.529 450.347 429.038 450.432C428.547 450.507 428.195 450.64 427.982 450.832C427.779 451.013 427.678 451.285 427.678 451.648C427.678 452.064 427.827 452.411 428.126 452.688C428.435 452.955 428.819 453.088 429.278 453.088Z" fill="white"/>
<rect x="257" y="491" width="239" height="46" rx="7" fill="#FD377E"/>
<path d="M356.034 507.864V519.5H354.278V507.864H356.034ZM360.153 514.318V519.5H358.455V510.773H360.085V512.193H360.193C360.394 511.731 360.708 511.36 361.136 511.08C361.568 510.799 362.112 510.659 362.767 510.659C363.362 510.659 363.883 510.784 364.33 511.034C364.777 511.28 365.123 511.648 365.369 512.136C365.616 512.625 365.739 513.229 365.739 513.949V519.5H364.04V514.153C364.04 513.521 363.875 513.027 363.545 512.67C363.216 512.311 362.763 512.131 362.188 512.131C361.794 512.131 361.443 512.216 361.136 512.386C360.833 512.557 360.593 512.807 360.415 513.136C360.241 513.462 360.153 513.856 360.153 514.318ZM368.017 519.5V510.773H369.716V519.5H368.017ZM368.875 509.426C368.58 509.426 368.326 509.328 368.114 509.131C367.905 508.93 367.801 508.691 367.801 508.415C367.801 508.134 367.905 507.896 368.114 507.699C368.326 507.498 368.58 507.398 368.875 507.398C369.17 507.398 369.422 507.498 369.631 507.699C369.843 507.896 369.949 508.134 369.949 508.415C369.949 508.691 369.843 508.93 369.631 509.131C369.422 509.328 369.17 509.426 368.875 509.426ZM375.678 519.676C374.833 519.676 374.106 519.485 373.496 519.102C372.89 518.716 372.424 518.184 372.098 517.506C371.772 516.828 371.609 516.051 371.609 515.176C371.609 514.29 371.776 513.508 372.109 512.83C372.443 512.148 372.912 511.616 373.518 511.233C374.125 510.85 374.839 510.659 375.661 510.659C376.323 510.659 376.914 510.782 377.433 511.028C377.952 511.271 378.371 511.612 378.689 512.051C379.011 512.491 379.202 513.004 379.263 513.591H377.609C377.518 513.182 377.31 512.83 376.984 512.534C376.662 512.239 376.231 512.091 375.689 512.091C375.215 512.091 374.801 512.216 374.445 512.466C374.092 512.712 373.818 513.064 373.621 513.523C373.424 513.977 373.325 514.515 373.325 515.136C373.325 515.773 373.422 516.322 373.615 516.784C373.808 517.246 374.081 517.604 374.433 517.858C374.789 518.112 375.208 518.239 375.689 518.239C376.011 518.239 376.303 518.18 376.564 518.062C376.829 517.941 377.051 517.769 377.229 517.545C377.411 517.322 377.537 517.053 377.609 516.739H379.263C379.202 517.303 379.018 517.807 378.712 518.25C378.405 518.693 377.994 519.042 377.479 519.295C376.967 519.549 376.367 519.676 375.678 519.676ZM381.08 519.5V510.773H382.778V519.5H381.08ZM381.938 509.426C381.642 509.426 381.388 509.328 381.176 509.131C380.968 508.93 380.864 508.691 380.864 508.415C380.864 508.134 380.968 507.896 381.176 507.699C381.388 507.498 381.642 507.398 381.938 507.398C382.233 507.398 382.485 507.498 382.693 507.699C382.905 507.896 383.011 508.134 383.011 508.415C383.011 508.691 382.905 508.93 382.693 509.131C382.485 509.328 382.233 509.426 381.938 509.426ZM387.604 519.693C387.051 519.693 386.551 519.591 386.104 519.386C385.657 519.178 385.303 518.877 385.041 518.483C384.784 518.089 384.655 517.606 384.655 517.034C384.655 516.542 384.75 516.136 384.939 515.818C385.128 515.5 385.384 515.248 385.706 515.062C386.028 514.877 386.388 514.737 386.786 514.642C387.183 514.547 387.589 514.475 388.001 514.426C388.524 514.366 388.948 514.316 389.274 514.278C389.6 514.237 389.837 514.17 389.984 514.08C390.132 513.989 390.206 513.841 390.206 513.636V513.597C390.206 513.1 390.066 512.716 389.786 512.443C389.509 512.17 389.096 512.034 388.547 512.034C387.975 512.034 387.524 512.161 387.195 512.415C386.869 512.665 386.643 512.943 386.518 513.25L384.922 512.886C385.111 512.356 385.388 511.928 385.751 511.602C386.119 511.273 386.541 511.034 387.018 510.886C387.496 510.735 387.998 510.659 388.524 510.659C388.873 510.659 389.242 510.701 389.632 510.784C390.026 510.864 390.393 511.011 390.734 511.227C391.079 511.443 391.361 511.752 391.581 512.153C391.801 512.551 391.911 513.068 391.911 513.705V519.5H390.251V518.307H390.183C390.073 518.527 389.909 518.742 389.689 518.955C389.469 519.167 389.187 519.343 388.842 519.483C388.498 519.623 388.085 519.693 387.604 519.693ZM387.973 518.33C388.443 518.33 388.844 518.237 389.178 518.051C389.515 517.866 389.77 517.623 389.945 517.324C390.123 517.021 390.212 516.697 390.212 516.352V515.227C390.151 515.288 390.034 515.345 389.859 515.398C389.689 515.447 389.494 515.491 389.274 515.528C389.054 515.562 388.84 515.595 388.632 515.625C388.424 515.652 388.25 515.674 388.109 515.693C387.78 515.735 387.479 515.805 387.206 515.903C386.937 516.002 386.721 516.144 386.558 516.33C386.399 516.511 386.32 516.754 386.32 517.057C386.32 517.477 386.475 517.795 386.786 518.011C387.096 518.223 387.492 518.33 387.973 518.33ZM394.173 519.5V510.773H395.815V512.159H395.906C396.065 511.689 396.346 511.32 396.747 511.051C397.152 510.778 397.611 510.642 398.122 510.642C398.228 510.642 398.353 510.646 398.497 510.653C398.645 510.661 398.76 510.67 398.844 510.682V512.307C398.776 512.288 398.654 512.267 398.48 512.244C398.306 512.218 398.132 512.205 397.957 512.205C397.556 512.205 397.198 512.29 396.884 512.46C396.573 512.627 396.327 512.86 396.145 513.159C395.963 513.455 395.872 513.792 395.872 514.17V519.5H394.173Z" fill="white"/>
<rect x="257" y="491" width="239" height="46" rx="7" stroke="#FD377E" stroke-width="2"/>
<path d="M270.092 214.858C270.751 214.858 271.288 215.075 271.704 215.508C272.137 215.941 272.354 216.505 272.354 217.198V231.108C272.354 231.819 272.146 232.391 271.73 232.824C271.314 233.257 270.777 233.474 270.118 233.474C269.338 233.474 268.749 233.214 268.35 232.694L260.446 222.84V231.108C260.446 231.819 260.247 232.391 259.848 232.824C259.449 233.257 258.912 233.474 258.236 233.474C257.577 233.474 257.04 233.257 256.624 232.824C256.208 232.391 256 231.819 256 231.108V217.198C256 216.505 256.208 215.941 256.624 215.508C257.04 215.075 257.577 214.858 258.236 214.858C258.981 214.858 259.562 215.118 259.978 215.638L267.882 225.466V217.198C267.882 216.487 268.081 215.924 268.48 215.508C268.896 215.075 269.433 214.858 270.092 214.858Z" fill="url(#paint0_linear_110_353)"/>
<path d="M285.948 220.266C286.658 220.266 287.222 220.457 287.638 220.838C288.054 221.219 288.262 221.739 288.262 222.398V231.394C288.262 232.001 288.045 232.503 287.612 232.902C287.178 233.283 286.615 233.474 285.922 233.474C285.298 233.474 284.786 233.309 284.388 232.98C283.989 232.633 283.781 232.174 283.764 231.602C283.365 232.226 282.854 232.703 282.23 233.032C281.623 233.361 280.921 233.526 280.124 233.526C278.477 233.526 277.255 233.075 276.458 232.174C275.66 231.255 275.262 229.869 275.262 228.014V222.398C275.262 221.739 275.47 221.219 275.886 220.838C276.302 220.457 276.865 220.266 277.576 220.266C278.286 220.266 278.85 220.457 279.266 220.838C279.682 221.219 279.89 221.739 279.89 222.398V228.118C279.89 229.366 280.427 229.99 281.502 229.99C282.126 229.99 282.637 229.765 283.036 229.314C283.434 228.863 283.634 228.274 283.634 227.546V222.398C283.634 221.739 283.842 221.219 284.258 220.838C284.674 220.457 285.237 220.266 285.948 220.266Z" fill="url(#paint1_linear_110_353)"/>
<path d="M314.177 229.73C314.628 230.163 314.853 230.666 314.853 231.238C314.853 231.81 314.636 232.313 314.203 232.746C313.77 233.179 313.258 233.396 312.669 233.396C312.028 233.396 311.438 233.119 310.901 232.564L303.491 224.972V231.108C303.491 231.836 303.274 232.417 302.841 232.85C302.408 233.266 301.818 233.474 301.073 233.474C300.345 233.474 299.764 233.266 299.331 232.85C298.915 232.417 298.707 231.836 298.707 231.108V217.198C298.707 216.487 298.915 215.924 299.331 215.508C299.764 215.075 300.345 214.858 301.073 214.858C301.818 214.858 302.408 215.075 302.841 215.508C303.274 215.924 303.491 216.487 303.491 217.198V222.918L310.797 215.56C311.248 215.092 311.759 214.858 312.331 214.858C312.903 214.858 313.406 215.075 313.839 215.508C314.272 215.924 314.489 216.418 314.489 216.99C314.489 217.562 314.238 218.091 313.735 218.576L308.405 223.802L314.177 229.73Z" fill="url(#paint2_linear_110_353)"/>
<path d="M326.822 229.21C327.221 229.21 327.542 229.366 327.784 229.678C328.044 229.99 328.174 230.397 328.174 230.9C328.174 231.593 327.836 232.122 327.16 232.486C326.571 232.781 325.869 233.032 325.054 233.24C324.257 233.431 323.52 233.526 322.844 233.526C321.423 233.526 320.184 233.257 319.126 232.72C318.069 232.183 317.254 231.411 316.682 230.406C316.11 229.401 315.824 228.222 315.824 226.87C315.824 225.587 316.093 224.443 316.63 223.438C317.185 222.415 317.948 221.627 318.918 221.072C319.906 220.5 321.016 220.214 322.246 220.214C323.442 220.214 324.491 220.474 325.392 220.994C326.294 221.514 326.987 222.251 327.472 223.204C327.975 224.157 328.226 225.275 328.226 226.558C328.226 226.957 328.131 227.269 327.94 227.494C327.767 227.702 327.507 227.806 327.16 227.806H320.296C320.418 228.638 320.686 229.236 321.102 229.6C321.518 229.964 322.134 230.146 322.948 230.146C323.382 230.146 323.78 230.103 324.144 230.016C324.508 229.912 324.916 229.773 325.366 229.6C325.626 229.496 325.878 229.409 326.12 229.34C326.38 229.253 326.614 229.21 326.822 229.21ZM322.376 223.334C321.77 223.334 321.284 223.533 320.92 223.932C320.556 224.313 320.34 224.877 320.27 225.622H324.352C324.248 224.097 323.59 223.334 322.376 223.334Z" fill="url(#paint3_linear_110_353)"/>
<path d="M338.942 220.214C340.468 220.214 341.603 220.673 342.348 221.592C343.094 222.493 343.466 223.871 343.466 225.726V231.342C343.466 232.001 343.258 232.521 342.842 232.902C342.426 233.283 341.863 233.474 341.152 233.474C340.442 233.474 339.878 233.283 339.462 232.902C339.046 232.521 338.838 232.001 338.838 231.342V225.934C338.838 225.171 338.7 224.617 338.422 224.27C338.162 223.923 337.764 223.75 337.226 223.75C336.533 223.75 335.978 223.975 335.562 224.426C335.164 224.859 334.964 225.449 334.964 226.194V231.342C334.964 232.001 334.756 232.521 334.34 232.902C333.924 233.283 333.361 233.474 332.65 233.474C331.94 233.474 331.376 233.283 330.96 232.902C330.544 232.521 330.336 232.001 330.336 231.342V222.346C330.336 221.739 330.553 221.245 330.986 220.864C331.42 220.465 331.983 220.266 332.676 220.266C333.335 220.266 333.855 220.448 334.236 220.812C334.635 221.176 334.834 221.653 334.834 222.242C335.285 221.583 335.866 221.081 336.576 220.734C337.287 220.387 338.076 220.214 338.942 220.214Z" fill="url(#paint4_linear_110_353)"/>
<path d="M355.777 229.912C357.163 229.912 357.857 230.475 357.857 231.602C357.857 232.746 357.163 233.318 355.777 233.318H347.587C346.98 233.318 346.486 233.127 346.105 232.746C345.723 232.365 345.533 231.905 345.533 231.368C345.533 230.796 345.749 230.267 346.183 229.782L351.643 223.932H347.457C346.07 223.932 345.377 223.36 345.377 222.216C345.377 221.089 346.07 220.526 347.457 220.526H355.335C355.941 220.526 356.435 220.717 356.817 221.098C357.198 221.479 357.389 221.939 357.389 222.476C357.389 223.031 357.172 223.551 356.739 224.036L351.253 229.912H355.777Z" fill="url(#paint5_linear_110_353)"/>
<path d="M361.875 233.474C361.216 233.474 360.662 233.301 360.211 232.954C359.778 232.59 359.561 232.053 359.561 231.342V222.398C359.561 221.687 359.778 221.159 360.211 220.812C360.662 220.448 361.216 220.266 361.875 220.266C362.534 220.266 363.08 220.448 363.513 220.812C363.964 221.159 364.189 221.687 364.189 222.398V231.342C364.189 232.053 363.964 232.59 363.513 232.954C363.08 233.301 362.534 233.474 361.875 233.474ZM361.875 218.446C361.095 218.446 360.471 218.247 360.003 217.848C359.552 217.432 359.327 216.886 359.327 216.21C359.327 215.534 359.552 214.997 360.003 214.598C360.471 214.199 361.095 214 361.875 214C362.638 214 363.253 214.199 363.721 214.598C364.189 214.997 364.423 215.534 364.423 216.21C364.423 216.886 364.189 217.432 363.721 217.848C363.27 218.247 362.655 218.446 361.875 218.446Z" fill="url(#paint6_linear_110_353)"/>
<path d="M377.274 229.21C377.672 229.21 377.993 229.366 378.236 229.678C378.496 229.99 378.626 230.397 378.626 230.9C378.626 231.593 378.288 232.122 377.612 232.486C377.022 232.781 376.32 233.032 375.506 233.24C374.708 233.431 373.972 233.526 373.296 233.526C371.874 233.526 370.635 233.257 369.578 232.72C368.52 232.183 367.706 231.411 367.134 230.406C366.562 229.401 366.276 228.222 366.276 226.87C366.276 225.587 366.544 224.443 367.082 223.438C367.636 222.415 368.399 221.627 369.37 221.072C370.358 220.5 371.467 220.214 372.698 220.214C373.894 220.214 374.942 220.474 375.844 220.994C376.745 221.514 377.438 222.251 377.924 223.204C378.426 224.157 378.678 225.275 378.678 226.558C378.678 226.957 378.582 227.269 378.392 227.494C378.218 227.702 377.958 227.806 377.612 227.806H370.748C370.869 228.638 371.138 229.236 371.554 229.6C371.97 229.964 372.585 230.146 373.4 230.146C373.833 230.146 374.232 230.103 374.596 230.016C374.96 229.912 375.367 229.773 375.818 229.6C376.078 229.496 376.329 229.409 376.572 229.34C376.832 229.253 377.066 229.21 377.274 229.21ZM372.828 223.334C372.221 223.334 371.736 223.533 371.372 223.932C371.008 224.313 370.791 224.877 370.722 225.622H374.804C374.7 224.097 374.041 223.334 372.828 223.334Z" fill="url(#paint7_linear_110_353)"/>
<defs>
<filter id="filter0_d_110_353" x="844.204" y="376.883" width="285.379" height="122.592" filterUnits="userSpaceOnUse" color-interpolation-filters="sRGB">
<feFlood flood-opacity="0" result="BackgroundImageFix"/>
<feColorMatrix in="SourceAlpha" type="matrix" values="0 0 0 0 0 0 0 0 0 0 0 0 0 0 0 0 0 0 127 0" result="hardAlpha"/>
<feOffset dy="2.67961"/>
<feGaussianBlur stdDeviation="13.3981"/>
<feComposite in2="hardAlpha" operator="out"/>
<feColorMatrix type="matrix" values="0 0 0 0 0 0 0 0 0 0 0 0 0 0 0 0 0 0 0.25 0"/>
<feBlend mode="normal" in2="BackgroundImageFix" result="effect1_dropShadow_110_353"/>
<feBlend mode="normal" in="SourceGraphic" in2="effect1_dropShadow_110_353" result="shape"/>
</filter>
<filter id="filter1_d_110_353" x="696.267" y="299.513" width="385.676" height="165.678" filterUnits="userSpaceOnUse" color-interpolation-filters="sRGB">
<feFlood flood-opacity="0" result="BackgroundImageFix"/>
<feColorMatrix in="SourceAlpha" type="matrix" values="0 0 0 0 0 0 0 0 0 0 0 0 0 0 0 0 0 0 127 0" result="hardAlpha"/>
<feOffset dy="3.62137"/>
<feGaussianBlur stdDeviation="18.1069"/>
<feComposite in2="hardAlpha" operator="out"/>
<feColorMatrix type="matrix" values="0 0 0 0 0 0 0 0 0 0 0 0 0 0 0 0 0 0 0.25 0"/>
<feBlend mode="normal" in2="BackgroundImageFix" result="effect1_dropShadow_110_353"/>
<feBlend mode="normal" in="SourceGraphic" in2="effect1_dropShadow_110_353" result="shape"/>
</filter>
<linearGradient id="paint0_linear_110_353" x1="291.386" y1="233.318" x2="291.886" y2="233.318" gradientUnits="userSpaceOnUse">
<stop stop-color="#FD377E"/>
<stop offset="1" stop-color="white"/>
</linearGradient>
<linearGradient id="paint1_linear_110_353" x1="291.386" y1="233.318" x2="291.886" y2="233.318" gradientUnits="userSpaceOnUse">
<stop stop-color="#FD377E"/>
<stop offset="1" stop-color="white"/>
</linearGradient>
<linearGradient id="paint2_linear_110_353" x1="291.386" y1="233.318" x2="291.886" y2="233.318" gradientUnits="userSpaceOnUse">
<stop stop-color="#FD377E"/>
<stop offset="1" stop-color="white"/>
</linearGradient>
<linearGradient id="paint3_linear_110_353" x1="291.386" y1="233.318" x2="291.886" y2="233.318" gradientUnits="userSpaceOnUse">
<stop stop-color="#FD377E"/>
<stop offset="1" stop-color="white"/>
</linearGradient>
<linearGradient id="paint4_linear_110_353" x1="291.386" y1="233.318" x2="291.886" y2="233.318" gradientUnits="userSpaceOnUse">
<stop stop-color="#FD377E"/>
<stop offset="1" stop-color="white"/>
</linearGradient>
<linearGradient id="paint5_linear_110_353" x1="291.386" y1="233.318" x2="291.886" y2="233.318" gradientUnits="userSpaceOnUse">
<stop stop-color="#FD377E"/>
<stop offset="1" stop-color="white"/>
</linearGradient>
<linearGradient id="paint6_linear_110_353" x1="291.386" y1="233.318" x2="291.886" y2="233.318" gradientUnits="userSpaceOnUse">
<stop stop-color="#FD377E"/>
<stop offset="1" stop-color="white"/>
</linearGradient>
<linearGradient id="paint7_linear_110_353" x1="291.386" y1="233.318" x2="291.886" y2="233.318" gradientUnits="userSpaceOnUse">
<stop stop-color="#FD377E"/>
<stop offset="1" stop-color="white"/>
</linearGradient>
<clipPath id="clip0_110_353">
<rect width="16.0777" height="16.0777" fill="white" transform="translate(895.117 427.796)"/>
</clipPath>
<clipPath id="clip1_110_353">
<rect width="21.7282" height="21.7282" fill="white" transform="translate(765.073 368.319)"/>
</clipPath>
</defs>
</svg>
